{
  "accessors": [
    {
      "bufferView": 2,
      "componentType": 5126,
      "count": 5139,
      "max": [
        0.35418200492858887,
        1.3497819900512695,
        1.433074951171875
      ],
      "min": [
        -1.8803520202636719,
        -0.8455320000648499,
        -4.191738128662109
      ],
      "type": "VEC3"
    },
    {
      "bufferView": 2,
      "byteOffset": 61668,
      "componentType": 5126,
      "count": 5139,
      "max": [
        0.9999922513961792,
        0.9996230006217957,
        0.9986321330070496
      ],
      "min": [
        -0.9958735108375549,
        -0.999920129776001,
        -0.996518075466156
      ],
      "type": "VEC3"
    },
    {
      "bufferView": 1,
      "componentType": 5126,
      "count": 5139,
      "max": [
        0.9914399981498718,
        0.9917089939117432
      ],
      "min": [
        0.00829899962991476,
        0.008472000248730183
      ],
      "type": "VEC2"
    },
    {
      "bufferView": 0,
      "componentType": 5125,
      "count": 23370,
      "type": "SCALAR"
    },
    {
      "bufferView": 2,
      "byteOffset": 123336,
      "componentType": 5126,
      "count": 8435,
      "max": [
        0.3552510142326355,
        1.3497819900512695,
        1.5752229690551758
      ],
      "min": [
        -1.9169340133666992,
        -0.9279590249061584,
        -4.144855976104736
      ],
      "type": "VEC3"
    },
    {
      "bufferView": 2,
      "byteOffset": 224556,
      "componentType": 5126,
      "count": 8435,
      "max": [
        0.9994007349014282,
        0.9991020560264587,
        0.9998201727867126
      ],
      "min": [
        -0.9997809529304504,
        -0.999920129776001,
        -0.9995244145393372
      ],
      "type": "VEC3"
    },
    {
      "bufferView": 1,
      "byteOffset": 41112,
      "componentType": 5126,
      "count": 8435,
      "max": [
        0.9916329979896545,
        0.9919430017471313
      ],
      "min": [
        0.008196000009775162,
        0.008058999665081501
      ],
      "type": "VEC2"
    },
    {
      "bufferView": 0,
      "byteOffset": 93480,
      "componentType": 5125,
      "count": 30009,
      "type": "SCALAR"
    },
    {
      "bufferView": 2,
      "byteOffset": 325776,
      "componentType": 5126,
      "count": 3841,
      "max": [
        0.11477000266313553,
        1.3497819900512695,
        1.5752229690551758
      ],
      "min": [
        -1.6575510501861572,
        -0.9000470042228699,
        -4.089032173156738
      ],
      "type": "VEC3"
    },
    {
      "bufferView": 2,
      "byteOffset": 371868,
      "componentType": 5126,
      "count": 3841,
      "max": [
        0.9993647336959839,
        0.9992992877960205,
        0.9981799125671387
      ],
      "min": [
        -0.9988853335380554,
        -0.9997426867485046,
        -0.9995244145393372
      ],
      "type": "VEC3"
    },
    {
      "bufferView": 1,
      "byteOffset": 108592,
      "componentType": 5126,
      "count": 3841,
      "max": [
        0.9910029768943787,
        0.9916980266571045
      ],
      "min": [
        0.008322999812662601,
        0.019089000299572945
      ],
      "type": "VEC2"
    },
    {
      "bufferView": 0,
      "byteOffset": 213516,
      "componentType": 5125,
      "count": 10638,
      "type": "SCALAR"
    },
    {
      "bufferView": 2,
      "byteOffset": 417960,
      "componentType": 5126,
      "count": 17,
      "max": [
        -1.281383991241455,
        0.9715780019760132,
        -2.332710027694702
      ],
      "min": [
        -1.9245719909667969,
        -0.48711100220680237,
        -3.7891740798950195
      ],
      "type": "VEC3"
    },
    {
      "bufferView": 1,
      "byteOffset": 139320,
      "componentType": 5126,
      "count": 17,
      "max": [
        0.0,
        0.0
      ],
      "min": [
        0.0,
        0.0
      ],
      "type": "VEC2"
    },
    {
      "bufferView": 0,
      "byteOffset": 256068,
      "componentType": 5125,
      "count": 20,
      "type": "SCALAR"
    },
    {
      "bufferView": 2,
      "byteOffset": 418164,
      "componentType": 5126,
      "count": 30,
      "max": [
        -0.1688849925994873,
        0.6582270264625549,
        0.04922100156545639
      ],
      "min": [
        -1.4062600135803223,
        -0.7710430026054382,
        -3.5806779861450195
      ],
      "type": "VEC3"
    },
    {
      "bufferView": 2,
      "byteOffset": 418524,
      "componentType": 5126,
      "count": 30,
      "max": [
        0.9337613582611084,
        0.8873229622840881,
        0.8592366576194763
      ],
      "min": [
        -0.9593403339385986,
        -0.7585222125053406,
        -0.8654206395149231
      ],
      "type": "VEC3"
    },
    {
      "bufferView": 1,
      "byteOffset": 139456,
      "componentType": 5126,
      "count": 30,
      "max": [
        0.8257660269737244,
        0.9881349802017212
      ],
      "min": [
        0.01843300089240074,
        0.828370988368988
      ],
      "type": "VEC2"
    },
    {
      "bufferView": 0,
      "byteOffset": 256148,
      "componentType": 5125,
      "count": 30,
      "type": "SCALAR"
    }
  ],
  "asset": {
    "extras": {
      "author": "AI (https://sketchfab.com/saharu54)",
      "license": "CC-BY-4.0 (http://creativecommons.org/licenses/by/4.0/)",
      "source": "https://sketchfab.com/3d-models/210829-094974ece654476abcf8c1865f646bec",
      "title": "210829"
    },
    "generator": "Sketchfab-11.59.2",
    "version": "2.0"
  },
  "bufferViews": [
    {
      "buffer": 0,
      "byteLength": 256268,
      "name": "floatBufferViews",
      "target": 34963
    },
    {
      "buffer": 0,
      "byteLength": 139696,
      "byteOffset": 256268,
      "byteStride": 8,
      "name": "floatBufferViews",
      "target": 34962
    },
    {
      "buffer": 0,
      "byteLength": 418884,
      "byteOffset": 395964,
      "byteStride": 12,
      "name": "floatBufferViews",
      "target": 34962
    }
  ],
  "buffers": [
    {
      "byteLength": 814848,
      "uri": "scene.bin"
    }
  ],
  "images": [
    {
      "uri": "textures/material0000_baseColor.jpeg"
    },
    {
      "uri": "textures/material0001_baseColor.jpeg"
    },
    {
      "uri": "textures/material0002_baseColor.jpeg"
    },
    {
      "uri": "textures/material0003_baseColor.jpeg"
    }
  ],
  "materials": [
    {
      "doubleSided": true,
      "name": "material0000",
      "pbrMetallicRoughness": {
        "baseColorTexture": {
          "index": 0
        },
        "metallicFactor": 0.0
      }
    },
    {
      "doubleSided": true,
      "name": "material0001",
      "pbrMetallicRoughness": {
        "baseColorTexture": {
          "index": 1
        },
        "metallicFactor": 0.0
      }
    },
    {
      "doubleSided": true,
      "name": "material0002",
      "pbrMetallicRoughness": {
        "baseColorTexture": {
          "index": 2
        },
        "metallicFactor": 0.0
      }
    },
    {
      "doubleSided": true,
      "name": "material0003",
      "pbrMetallicRoughness": {
        "baseColorTexture": {
          "index": 3
        },
        "metallicFactor": 0.0
      }
    }
  ],
  "meshes": [
    {
      "name": "Object_0",
      "primitives": [
        {
          "attributes": {
            "NORMAL": 1,
            "POSITION": 0,
            "TEXCOORD_0": 2
          },
          "indices": 3,
          "material": 0,
          "mode": 4
        }
      ]
    },
    {
      "name": "Object_1",
      "primitives": [
        {
          "attributes": {
            "NORMAL": 5,
            "POSITION": 4,
            "TEXCOORD_0": 6
          },
          "indices": 7,
          "material": 1,
          "mode": 4
        }
      ]
    },
    {
      "name": "Object_2",
      "primitives": [
        {
          "attributes": {
            "NORMAL": 9,
            "POSITION": 8,
            "TEXCOORD_0": 10
          },
          "indices": 11,
          "material": 2,
          "mode": 4
        }
      ]
    },
    {
      "name": "Object_3",
      "primitives": [
        {
          "attributes": {
            "POSITION": 12,
            "TEXCOORD_0": 13
          },
          "indices": 14,
          "material": 3,
          "mode": 1
        }
      ]
    },
    {
      "name": "Object_4",
      "primitives": [
        {
          "attributes": {
            "NORMAL": 16,
            "POSITION": 15,
            "TEXCOORD_0": 17
          },
          "indices": 18,
          "material": 3,
          "mode": 4
        }
      ]
    }
  ],
  "nodes": [
    {
      "children": [
        1
      ],
      "matrix": [
        1.0,
        0.0,
        0.0,
        0.0,
        0.0,
        2.220446049250313e-16,
        -1.0,
        0.0,
        0.0,
        1.0,
        2.220446049250313e-16,
        0.0,
        0.0,
        0.0,
        0.0,
        1.0
      ],
      "name": "Sketchfab_model"
    },
    {
      "children": [
        2,
        3,
        4,
        5,
        6
      ],
      "name": "reduction.obj.cleaner.materialmerger.gles"
    },
    {
      "mesh": 0,
      "name": "Object_2"
    },
    {
      "mesh": 1,
      "name": "Object_3"
    },
    {
      "mesh": 2,
      "name": "Object_4"
    },
    {
      "mesh": 3,
      "name": "Object_5"
    },
    {
      "mesh": 4,
      "name": "Object_6"
    }
  ],
  "samplers": [
    {
      "magFilter": 9729,
      "minFilter": 9987,
      "wrapS": 10497,
      "wrapT": 10497
    }
  ],
  "scene": 0,
  "scenes": [
    {
      "name": "Sketchfab_Scene",
      "nodes": [
        0
      ]
    }
  ],
  "textures": [
    {
      "sampler": 0,
      "source": 0
    },
    {
      "sampler": 0,
      "source": 1
    },
    {
      "sampler": 0,
      "source": 2
    },
    {
      "sampler": 0,
      "source": 3
    }
  ]
}
