<svg width="1013" height="648" viewBox="0 0 1013 648" fill="none" xmlns="http://www.w3.org/2000/svg">
<path d="M959.195 389.319C950.182 389.319 943.389 386.837 938.817 381.873C934.376 376.779 932.156 369.268 932.156 359.341V293.507L932.548 291.548V272.738C932.548 271.562 933.201 270.779 934.507 270.387C935.813 270.126 937.25 269.93 938.817 269.799C940.385 269.538 942.018 269.342 943.716 269.211C945.414 268.95 946.981 268.819 948.418 268.819C949.594 268.819 950.182 269.472 950.182 270.779V358.949C950.182 365.48 951.684 370.183 954.688 373.056C957.692 375.93 962.591 377.367 969.383 377.367C971.473 377.367 973.628 377.236 975.849 376.975C978.2 376.714 980.682 376.257 983.295 375.604C984.47 375.342 985.123 375.865 985.254 377.171L985.45 379.718C985.58 380.763 985.123 381.743 984.078 382.657C981.988 383.963 979.506 385.139 976.633 386.184C973.759 387.098 970.82 387.817 967.816 388.339C964.811 388.992 961.938 389.319 959.195 389.319ZM919.812 301.149C918.767 301.149 918.31 300.495 918.44 299.189L919.224 295.075C919.485 293.899 920.269 293.246 921.575 293.115L932.548 291.548H972.91L985.058 290.96C986.234 290.96 986.821 291.613 986.821 292.919C986.952 293.964 986.952 295.075 986.821 296.25C986.821 297.295 986.691 298.34 986.429 299.385C986.038 300.561 985.254 301.149 984.078 301.149H919.812Z" fill="white"/>
<path d="M862.797 389.514C854.306 389.514 846.534 387.555 839.481 383.636C832.427 379.587 826.81 373.839 822.63 366.394C818.581 358.818 816.556 349.739 816.556 339.159C816.556 328.448 818.711 319.5 823.022 312.316C827.333 305.001 833.08 299.45 840.264 295.662C847.448 291.874 855.351 289.979 863.972 289.979C871.287 289.979 877.949 291.743 883.958 295.27C890.097 298.666 894.995 303.564 898.653 309.965C902.31 316.365 904.139 324.007 904.139 332.889C904.139 333.412 904.139 334.065 904.139 334.848C904.139 335.632 904.074 336.351 903.943 337.004C903.551 338.179 902.767 338.767 901.592 338.767H832.035V329.754H892.187L887.68 334.065C887.68 333.412 887.68 332.824 887.68 332.301C887.68 331.648 887.68 331.06 887.68 330.538C887.68 324.79 886.57 319.696 884.349 315.255C882.129 310.814 879.059 307.287 875.141 304.675C871.353 302.062 866.977 300.756 862.013 300.756C853.392 300.756 846.665 304.021 841.832 310.553C837.129 316.953 834.778 326.162 834.778 338.179C834.778 345.625 836.215 352.352 839.089 358.361C841.962 364.369 845.881 369.137 850.845 372.664C855.808 376.06 861.425 377.758 867.695 377.758C877.884 377.758 886.309 374.884 892.971 369.137C893.885 368.353 894.669 368.484 895.322 369.529L897.085 372.076C897.738 372.99 897.673 374.035 896.889 375.211C892.84 379.652 887.811 383.179 881.802 385.791C875.924 388.273 869.589 389.514 862.797 389.514Z" fill="white"/>
<path d="M745.12 387.947V326.031H763.146V387.947H745.12ZM802.137 307.026C802.137 308.201 801.484 308.789 800.177 308.789H789.205C787.638 308.789 786.135 308.92 784.699 309.181C783.392 309.312 781.956 309.704 780.388 310.357C776.6 311.924 773.008 314.014 769.612 316.627C766.216 319.108 763.407 321.917 761.187 325.052L760.599 319.37C761.644 315.973 763.342 312.577 765.693 309.181C768.044 305.785 770.787 302.65 773.922 299.776C777.188 296.772 780.649 294.421 784.307 292.723C788.095 290.894 791.818 289.979 795.475 289.979C799.916 289.979 802.137 290.633 802.137 291.939V307.026ZM733.364 387.947C732.188 387.947 731.6 387.294 731.6 385.987V384.028C731.6 382.722 732.254 382.003 733.56 381.873L741.201 380.109C743.03 379.717 744.14 379.26 744.532 378.738C744.924 378.215 745.12 377.04 745.12 375.211V352.678H763.146V375.407C763.146 377.105 763.342 378.215 763.734 378.738C764.256 379.26 765.432 379.652 767.261 379.913L779.408 382.069C780.584 382.199 781.172 382.918 781.172 384.224V386.183C781.172 387.359 780.519 387.947 779.213 387.947H733.364ZM745.12 326.031V297.425L748.647 303.303L731.796 300.56C730.621 300.429 730.033 299.711 730.033 298.405V296.053C730.033 295.008 730.686 294.29 731.992 293.898L756.876 290.175C758.705 289.914 760.011 290.045 760.795 290.567C761.578 290.959 761.97 292.004 761.97 293.702V313.1L763.146 316.431V326.031H745.12Z" fill="white"/>
<path d="M674.498 389.514C665.485 389.514 657.517 387.424 650.594 383.244C643.801 379.064 638.511 373.252 634.723 365.806C630.935 358.361 629.041 349.739 629.041 339.943C629.041 330.015 631 321.329 634.919 313.883C638.837 306.438 644.324 300.625 651.377 296.445C658.431 292.135 666.595 289.979 675.869 289.979C681.486 289.979 687.168 290.567 692.915 291.743C698.663 292.788 703.757 294.225 708.198 296.053C709.243 296.576 709.7 297.49 709.57 298.797L707.806 325.835C707.676 327.011 706.957 327.599 705.651 327.599H701.536C700.23 327.599 699.512 326.946 699.381 325.64L694.287 300.952L702.712 306.242C699.055 304.805 695.136 303.695 690.956 302.911C686.776 302.127 682.4 301.736 677.828 301.736C667.901 301.736 660.39 304.805 655.296 310.944C650.332 316.953 647.85 325.966 647.85 337.983C647.85 345.821 649.222 352.744 651.965 358.752C654.839 364.631 658.823 369.268 663.917 372.664C669.011 376.06 674.824 377.758 681.355 377.758C685.927 377.758 690.303 377.04 694.483 375.603C698.793 374.166 702.777 372.011 706.435 369.137C707.349 368.223 708.198 368.353 708.982 369.529L710.745 372.272C711.399 373.056 711.268 374.035 710.354 375.211C706.174 379.783 700.949 383.31 694.679 385.791C688.54 388.273 681.812 389.514 674.498 389.514Z" fill="white"/>
<path d="M571.045 389.514C562.555 389.514 554.783 387.555 547.729 383.636C540.676 379.587 535.059 373.839 530.879 366.394C526.83 358.818 524.805 349.739 524.805 339.159C524.805 328.448 526.96 319.5 531.271 312.316C535.581 305.001 541.329 299.45 548.513 295.662C555.697 291.874 563.6 289.979 572.221 289.979C579.536 289.979 586.198 291.743 592.206 295.27C598.346 298.666 603.244 303.564 606.901 309.965C610.559 316.365 612.388 324.007 612.388 332.889C612.388 333.412 612.388 334.065 612.388 334.848C612.388 335.632 612.322 336.351 612.192 337.004C611.8 338.179 611.016 338.767 609.84 338.767H540.284V329.754H600.436L595.929 334.065C595.929 333.412 595.929 332.824 595.929 332.301C595.929 331.648 595.929 331.06 595.929 330.538C595.929 324.79 594.819 319.696 592.598 315.255C590.378 310.814 587.308 307.287 583.389 304.675C579.601 302.062 575.225 300.756 570.262 300.756C561.641 300.756 554.914 304.021 550.08 310.553C545.378 316.953 543.027 326.162 543.027 338.179C543.027 345.625 544.464 352.352 547.337 358.361C550.211 364.369 554.13 369.137 559.093 372.664C564.057 376.06 569.674 377.758 575.944 377.758C586.132 377.758 594.558 374.884 601.219 369.137C602.134 368.353 602.917 368.484 603.571 369.529L605.334 372.076C605.987 372.99 605.922 374.035 605.138 375.211C601.089 379.652 596.06 383.179 590.051 385.791C584.173 388.273 577.838 389.514 571.045 389.514Z" fill="white"/>
<path d="M464.003 305.654C475.367 309.181 484.38 312.904 491.042 316.823C497.704 320.611 502.471 324.921 505.345 329.754C508.219 334.587 509.656 340.465 509.656 347.388C509.656 356.14 507.5 363.651 503.19 369.921C498.879 376.191 492.675 381.024 484.576 384.42C476.608 387.816 467.007 389.514 455.774 389.514C448.851 389.514 442.45 388.992 436.572 387.947C430.694 386.902 425.534 385.726 421.093 384.42C416.783 382.983 413.387 381.677 410.905 380.501C409.86 379.979 409.337 379.065 409.337 377.758L408.553 348.956C408.553 347.78 409.207 347.193 410.513 347.193L414.04 346.997C415.215 346.997 415.999 347.584 416.391 348.76L420.31 360.124C421.485 363.39 423.183 366.133 425.404 368.353C427.624 370.574 430.237 372.337 433.241 373.644C436.246 374.95 439.511 375.93 443.038 376.583C446.695 377.105 450.483 377.366 454.402 377.366C465.897 377.366 474.779 375.146 481.049 370.705C487.319 366.263 490.454 360.059 490.454 352.091C490.454 347.258 489.409 343.274 487.319 340.139C485.36 336.873 481.833 333.869 476.739 331.126C471.644 328.383 464.46 325.509 455.186 322.505C443.691 318.586 434.547 314.733 427.755 310.945C421.093 307.026 416.26 302.65 413.256 297.817C410.382 292.984 408.945 287.302 408.945 280.771C408.945 272.542 411.035 265.488 415.215 259.61C419.526 253.601 425.6 249.029 433.437 245.894C441.275 242.629 450.483 240.996 461.064 240.996C467.073 240.996 472.624 241.519 477.718 242.564C482.813 243.609 487.319 244.915 491.238 246.482C495.287 247.919 498.422 249.421 500.643 250.989C501.557 251.772 502.014 252.752 502.014 253.928L502.798 281.163C502.798 282.338 502.145 282.991 500.839 283.122L496.332 283.318C495.156 283.449 494.373 282.861 493.981 281.555L489.474 267.839C488.299 264.051 486.405 261.112 483.792 259.022C481.18 256.932 477.98 255.43 474.191 254.516C470.403 253.601 466.093 253.144 461.26 253.144C450.679 253.144 442.581 255.234 436.964 259.414C431.347 263.594 428.539 269.537 428.539 277.244C428.539 281.685 429.584 285.539 431.674 288.804C433.894 291.939 437.552 294.813 442.646 297.425C447.871 300.038 454.99 302.781 464.003 305.654Z" fill="white"/>
<path d="M950.181 358.948V301.146H984.078L984.501 301.12C985.309 301.01 985.898 300.569 986.265 299.796L986.43 299.384C986.626 298.6 986.748 297.816 986.797 297.033L986.821 296.249C986.951 295.073 986.951 293.963 986.821 292.919C986.821 291.613 986.234 290.96 985.059 290.96L972.911 291.547H950.181V270.779C950.181 269.473 949.594 268.818 948.419 268.818C946.982 268.818 945.414 268.95 943.715 269.211C942.018 269.341 940.385 269.537 938.818 269.798C937.25 269.929 935.813 270.124 934.507 270.385L934.047 270.55C933.047 270.979 932.548 271.709 932.548 272.737V291.547L921.576 293.115L921.11 293.187C920.081 293.415 919.452 294.045 919.224 295.074L918.44 299.188L918.418 299.648C918.431 300.505 918.774 300.995 919.447 301.117L919.811 301.146H932.155V359.341L932.182 361.172C932.442 370.196 934.654 377.095 938.818 381.872C943.103 386.525 949.34 388.998 957.529 389.289L959.196 389.318C961.938 389.318 964.813 388.99 967.817 388.337C970.07 387.945 972.286 387.445 974.466 386.833L976.632 386.182C979.146 385.268 981.361 384.254 983.275 383.139L984.078 382.655C985.123 381.741 985.58 380.761 985.449 379.716L985.253 377.17C985.122 375.864 984.47 375.341 983.294 375.602C980.682 376.255 978.199 376.712 975.848 376.974C973.627 377.235 971.471 377.367 969.382 377.367V374.646C971.358 374.646 973.409 374.521 975.531 374.271L975.547 374.268L977.238 374.05C978.953 373.795 980.753 373.434 982.635 372.963L982.67 372.953L982.704 372.948C983.728 372.72 985.15 372.7 986.366 373.673C987.375 374.48 987.766 375.597 987.913 376.519L987.961 376.899L987.963 376.931L987.966 376.96L988.163 379.509H988.16C988.381 381.668 987.325 383.431 985.869 384.704L985.704 384.848L985.521 384.965C983.236 386.393 980.574 387.646 977.562 388.741L977.511 388.76L977.458 388.776C974.501 389.717 971.479 390.456 968.393 390.997L967.208 391.239C964.456 391.768 961.784 392.039 959.196 392.039C949.689 392.039 942.06 389.409 936.816 383.716L936.79 383.689L936.766 383.66C931.73 377.883 929.434 369.624 929.434 359.341V303.868H919.811C918.706 303.868 917.345 303.489 916.454 302.217C915.677 301.106 915.641 299.828 915.732 298.917L915.745 298.797L915.766 298.68L916.55 294.564L916.566 294.484C916.803 293.419 917.331 292.389 918.264 291.611C919.145 290.877 920.185 290.538 921.19 290.421L929.827 289.185V272.737C929.827 271.615 930.151 270.479 930.946 269.524C931.712 268.605 932.73 268.077 933.726 267.778L933.848 267.744L933.973 267.717C935.361 267.44 936.861 267.236 938.467 267.098C940.061 266.835 941.712 266.636 943.418 266.503C945.184 266.236 946.854 266.096 948.419 266.096L948.834 266.112C949.822 266.187 950.915 266.547 951.762 267.489C952.682 268.51 952.903 269.773 952.903 270.779V288.826H972.834L984.926 288.241L984.992 288.239H985.059C986.144 288.239 987.434 288.553 988.402 289.629C989.274 290.598 989.514 291.784 989.537 292.762C989.67 293.946 989.665 295.168 989.534 296.421C989.52 297.637 989.368 298.846 989.069 300.043L989.045 300.144L989.01 300.245C988.686 301.219 988.118 302.18 987.179 302.884C986.228 303.597 985.133 303.868 984.078 303.868H952.903V358.948C952.903 365.15 954.342 368.959 956.57 371.09L957.014 371.486C959.343 373.419 963.277 374.646 969.382 374.646V377.367L968.133 377.348C962.396 377.191 958.109 375.935 955.273 373.577L954.688 373.056C951.872 370.362 950.376 366.06 950.2 360.152L950.181 358.948Z" fill="black"/>
<path d="M904.14 334.849V332.888C904.139 324.561 902.531 317.325 899.316 311.179L898.652 309.964C895.223 303.964 890.703 299.284 885.093 295.925L883.958 295.271C878.325 291.965 872.118 290.208 865.337 290.001L863.971 289.98C855.35 289.98 847.447 291.873 840.263 295.661L838.934 296.392C832.367 300.15 827.062 305.458 823.021 312.316C818.711 319.5 816.555 328.449 816.555 339.16L816.579 341.126C816.817 350.869 818.834 359.292 822.63 366.394C826.81 373.839 832.426 379.587 839.479 383.636C846.092 387.31 853.337 389.261 861.212 389.491L862.796 389.515C869.164 389.515 875.131 388.425 880.695 386.243L881.803 385.792C887.436 383.342 892.208 380.09 896.119 376.033L896.89 375.212C897.576 374.183 897.711 373.253 897.296 372.424L897.084 372.076L895.322 369.53C894.669 368.485 893.884 368.353 892.97 369.137C886.308 374.884 877.883 377.758 867.694 377.758V375.037C877.339 375.037 885.101 372.332 891.192 367.077L891.2 367.072L891.503 366.827C892.259 366.263 893.359 365.742 894.692 365.964C896.127 366.203 897.031 367.178 897.557 367.981H897.559L899.3 370.495L899.534 370.851C900.044 371.698 900.306 372.672 900.241 373.716C900.17 374.855 899.722 375.869 899.154 376.721L899.04 376.891L898.899 377.046C894.569 381.794 889.215 385.536 882.887 388.287L882.861 388.298C876.626 390.93 869.929 392.236 862.796 392.236C853.868 392.236 845.638 390.17 838.158 386.015L838.124 385.996V385.994C830.624 381.687 824.665 375.576 820.257 367.726L820.231 367.678C815.927 359.626 813.834 350.085 813.834 339.16C813.834 328.091 816.062 318.625 820.688 310.916C825.241 303.196 831.35 297.285 838.995 293.254C846.595 289.247 854.936 287.258 863.971 287.258C871.721 287.258 878.842 289.129 885.274 292.89L886.496 293.591C892.524 297.202 897.366 302.23 901.014 308.614L901.729 309.922C905.182 316.524 906.861 324.209 906.861 332.888V334.849C906.861 335.782 906.782 336.683 906.611 337.539L906.576 337.704L906.523 337.866C906.199 338.839 905.631 339.8 904.692 340.505C903.741 341.217 902.646 341.488 901.591 341.488H837.606C837.968 347.249 839.29 352.472 841.544 357.186C844.236 362.815 847.867 367.205 852.416 370.439C856.899 373.496 861.963 375.036 867.694 375.037V377.758L866.527 377.739C861.113 377.554 856.198 376.066 851.784 373.28L850.845 372.663C846.192 369.357 842.455 364.961 839.639 359.474L839.088 358.361C836.291 352.51 834.86 345.979 834.786 338.767H901.591L902.013 338.74C902.822 338.63 903.411 338.189 903.778 337.417L903.943 337.005C904.041 336.515 904.102 335.987 904.126 335.423L904.14 334.849ZM862.937 300.772C867.521 300.925 871.589 302.227 875.141 304.676C879.059 307.288 882.128 310.814 884.349 315.255C886.468 319.494 887.574 324.327 887.671 329.755H835.214C836.091 321.766 838.295 315.364 841.831 310.552C846.664 304.021 853.392 300.756 862.012 300.756L862.937 300.772ZM862.012 303.477C854.192 303.477 848.302 306.383 844.018 312.173C841.275 315.91 839.35 320.83 838.334 327.034H884.801C884.443 323.095 883.471 319.585 881.915 316.473C879.894 312.431 877.134 309.275 873.631 306.94L873.612 306.927L873.594 306.916C870.296 304.642 866.47 303.477 862.012 303.477Z" fill="black"/>
<path d="M802.136 291.938C802.135 290.796 800.435 290.154 797.036 290.012L795.476 289.98C791.819 289.98 788.094 290.894 784.306 292.722L782.943 293.389C779.786 295.018 776.778 297.147 773.921 299.775L772.765 300.868C770.108 303.439 767.75 306.209 765.693 309.18L764.843 310.456C763.953 311.838 763.173 313.22 762.499 314.602L761.97 313.1V293.703C761.97 292.005 761.579 290.959 760.795 290.567C760.011 290.044 758.704 289.915 756.875 290.176L731.993 293.899L731.533 294.062C730.533 294.476 730.032 295.14 730.032 296.055V298.404L730.061 298.866C730.189 299.881 730.767 300.445 731.796 300.559L745.118 302.728V375.212C745.118 377.04 744.923 378.216 744.531 378.738C744.139 379.261 743.029 379.718 741.201 380.11L733.558 381.872C732.253 382.003 731.6 382.722 731.6 384.027V385.988L731.629 386.448C731.739 387.304 732.179 387.792 732.95 387.915L733.364 387.947H779.212L779.672 387.92C780.529 387.81 781.019 387.368 781.141 386.597L781.17 386.182V384.224C781.17 382.918 780.584 382.199 779.409 382.068L767.261 379.913C765.433 379.652 764.257 379.261 763.734 378.738C763.343 378.216 763.144 377.104 763.144 375.406V322.553C764.673 320.775 766.413 319.114 768.366 317.573L769.61 316.627C772.582 314.341 775.704 312.455 778.975 310.969L780.386 310.358C781.758 309.786 783.031 309.413 784.203 309.241L784.697 309.18C785.774 308.984 786.889 308.863 788.04 308.814L789.204 308.79H800.177L800.637 308.763C801.494 308.653 801.984 308.211 802.106 307.44L802.136 307.025V291.938ZM804.857 307.025C804.857 308.111 804.543 309.403 803.467 310.371C802.446 311.29 801.183 311.511 800.177 311.511H789.204C787.789 311.511 786.451 311.629 785.186 311.859L785.077 311.878L784.968 311.888C783.994 311.986 782.822 312.291 781.434 312.869L781.428 312.872C777.871 314.344 774.486 316.311 771.271 318.785L771.245 318.803L771.218 318.824C769.2 320.299 767.418 321.887 765.866 323.584V375.406L765.898 376.381C765.91 376.566 765.932 376.725 765.951 376.862C766.125 376.917 766.335 376.98 766.589 377.035L767.644 377.218L767.691 377.226L779.863 379.384C780.91 379.53 782.018 379.981 782.837 380.981C783.663 381.991 783.892 383.194 783.892 384.224V386.182C783.892 387.268 783.578 388.56 782.502 389.528C781.48 390.447 780.218 390.668 779.212 390.668H733.364C732.279 390.668 730.987 390.354 730.018 389.278C729.099 388.257 728.878 386.994 728.878 385.988V384.027C728.878 382.935 729.157 381.69 730.077 380.678C730.93 379.74 732.036 379.335 733.059 379.196L740.59 377.458L740.609 377.452L740.63 377.45C741.404 377.284 741.941 377.115 742.291 376.979C742.32 376.793 742.35 376.563 742.368 376.283L742.397 375.212V305.042L731.358 303.246C730.306 303.103 729.191 302.652 728.368 301.646C727.542 300.636 727.31 299.433 727.31 298.404V296.055C727.31 294.912 727.69 293.8 728.509 292.9C729.276 292.057 730.265 291.576 731.209 291.292L731.398 291.237L731.589 291.207L742.397 289.589V287.601L743.492 289.424L756.474 287.484L756.49 287.482L757.229 287.391C758.95 287.22 760.788 287.325 762.244 288.266C764.36 289.485 764.691 291.992 764.691 293.703V305.922C766.871 303.009 769.334 300.291 772.082 297.771C775.102 294.993 778.306 292.72 781.697 290.971L783.161 290.253C787.25 288.285 791.364 287.258 795.476 287.258C797.764 287.258 799.747 287.42 801.24 287.859C801.984 288.078 802.824 288.427 803.52 289.042C804.296 289.726 804.857 290.722 804.857 291.938V307.025Z" fill="black"/>
<path d="M647.85 337.983C647.85 325.966 650.333 316.953 655.296 310.945C660.39 304.806 667.9 301.737 677.827 301.737L679.533 301.755C683.49 301.841 687.298 302.225 690.955 302.911C692.285 303.161 693.589 303.446 694.867 303.762L699.382 325.638C699.496 326.782 700.06 327.425 701.075 327.568L701.537 327.6H705.651L706.114 327.57C706.982 327.46 707.521 327.02 707.729 326.25L707.806 325.835L709.568 298.797C709.683 297.654 709.348 296.81 708.561 296.267L708.197 296.055C704.311 294.455 699.926 293.154 695.04 292.153L692.916 291.744C687.887 290.716 682.907 290.135 677.978 290.006L675.868 289.98C666.594 289.98 658.43 292.135 651.376 296.445L650.072 297.248C643.643 301.358 638.592 306.904 634.918 313.884L634.206 315.295C630.762 322.421 629.04 330.637 629.04 339.944L629.064 341.767C629.286 350.813 631.171 358.827 634.722 365.807C638.51 373.252 643.8 379.066 650.592 383.246C657.083 387.164 664.493 389.246 672.82 389.491L674.497 389.515C681.812 389.515 688.539 388.273 694.678 385.792C700.556 383.465 705.517 380.221 709.558 376.057L710.352 375.212C711.266 374.037 711.398 373.056 710.746 372.273L708.981 369.53C708.197 368.355 707.349 368.223 706.435 369.137C702.778 372.011 698.792 374.166 694.482 375.603C690.302 377.039 685.927 377.758 681.356 377.758V375.037C685.636 375.036 689.712 374.365 693.597 373.03L693.623 373.022L695.111 372.488C698.528 371.182 701.717 369.368 704.689 367.043C705.452 366.342 706.646 365.626 708.171 365.86C709.525 366.068 710.442 366.931 711.019 367.699L711.245 368.021L711.272 368.058L713.002 370.75C713.68 371.667 713.991 372.778 713.834 373.955C713.68 375.105 713.116 376.091 712.502 376.881L712.436 376.969L712.361 377.048C707.879 381.951 702.299 385.702 695.68 388.322L695.677 388.319C689.187 390.939 682.117 392.236 674.497 392.236C665.047 392.236 656.581 390.038 649.187 385.574L649.168 385.563C642.381 381.386 637.01 375.678 633.066 368.496L632.298 367.04C628.285 359.152 626.319 350.095 626.319 339.944C626.319 329.654 628.352 320.517 632.511 312.616C636.651 304.749 642.474 298.565 649.957 294.123L651.384 293.288C658.578 289.248 666.763 287.258 675.868 287.258C681.676 287.258 687.542 287.865 693.461 289.076H693.458C698.596 290.013 703.268 291.263 707.461 292.839L709.234 293.538L709.327 293.575L709.414 293.62C710.385 294.106 711.23 294.857 711.758 295.914C712.258 296.913 712.368 297.976 712.282 298.97L712.284 298.973L710.522 326.013L710.512 326.135C710.391 327.227 709.942 328.404 708.893 329.263C707.884 330.089 706.681 330.321 705.651 330.321H701.537C700.445 330.321 699.198 330.042 698.186 329.122C697.235 328.257 696.832 327.132 696.698 326.098L692.552 306.015C692.352 305.971 692.153 305.925 691.952 305.882L690.455 305.587C686.453 304.837 682.243 304.458 677.827 304.458C668.494 304.458 661.844 307.316 657.39 312.683L657.388 312.68C652.997 317.998 650.571 326.275 650.571 337.983C650.571 345.497 651.885 352.02 654.435 357.611C657.11 363.061 660.776 367.299 665.427 370.399C670.044 373.477 675.325 375.037 681.356 375.037V377.758L680.139 377.739C674.502 377.554 669.416 376.066 664.879 373.28L663.917 372.663C658.823 369.267 654.837 364.632 651.964 358.754C649.392 353.121 648.027 346.682 647.866 339.442L647.85 337.983Z" fill="black"/>
<path d="M612.388 334.849V332.888C612.388 324.561 610.779 317.325 607.564 311.179L606.9 309.964C603.471 303.965 598.953 299.284 593.344 295.925L592.207 295.271C586.574 291.964 580.366 290.208 573.585 290.001L572.222 289.98C563.601 289.98 555.698 291.874 548.514 295.661L547.183 296.392C540.616 300.15 535.311 305.458 531.269 312.316C526.959 319.5 524.804 328.449 524.804 339.16L524.828 341.126C525.065 350.869 527.083 359.292 530.879 366.394C535.059 373.84 540.676 379.587 547.73 383.636C554.342 387.31 561.586 389.261 569.461 389.491L571.045 389.515C577.412 389.515 583.379 388.424 588.943 386.243L590.051 385.792C595.684 383.342 600.456 380.09 604.367 376.033L605.138 375.212C605.824 374.183 605.96 373.253 605.545 372.424L605.335 372.076L603.57 369.53C602.917 368.485 602.133 368.353 601.218 369.137C594.557 374.884 586.131 377.758 575.942 377.758V375.037C585.587 375.037 593.35 372.331 599.44 367.077L599.448 367.072L599.751 366.827C600.507 366.263 601.607 365.742 602.94 365.964C604.376 366.203 605.279 367.178 605.805 367.981H605.808L607.572 370.527H607.57C608.217 371.446 608.566 372.535 608.492 373.716C608.421 374.855 607.971 375.869 607.402 376.721L607.288 376.891L607.15 377.046C602.819 381.795 597.464 385.536 591.136 388.287L591.109 388.298C584.875 390.93 578.177 392.236 571.045 392.236C562.675 392.236 554.917 390.42 547.818 386.77L546.407 386.015L546.375 385.996C538.874 381.69 532.913 375.577 528.506 367.726L528.479 367.678C524.175 359.626 522.082 350.085 522.082 339.16C522.082 328.091 524.31 318.625 528.936 310.916C533.49 303.195 539.598 297.285 547.244 293.254C554.843 289.247 563.187 287.258 572.222 287.258C579.971 287.258 587.091 289.129 593.522 292.89H593.525C600.122 296.54 605.374 301.804 609.265 308.614L609.977 309.922C613.43 316.524 615.109 324.208 615.109 332.888V334.849C615.109 335.782 615.031 336.683 614.859 337.539L614.827 337.704L614.774 337.866C614.45 338.839 613.882 339.8 612.943 340.505C611.992 341.218 610.895 341.488 609.839 341.488H545.854C546.217 347.249 547.538 352.472 549.792 357.186C552.484 362.815 556.115 367.205 560.664 370.439C565.147 373.497 570.211 375.036 575.942 375.037V377.758L574.776 377.739C569.361 377.554 564.447 376.066 560.032 373.28L559.094 372.663C554.441 369.357 550.706 364.961 547.89 359.474L547.337 358.361C544.539 352.51 543.108 345.979 543.034 338.767H609.839L610.262 338.74C611.071 338.63 611.659 338.189 612.026 337.417L612.191 337.005C612.289 336.515 612.35 335.987 612.375 335.423L612.388 334.849ZM571.185 300.772C575.77 300.925 579.838 302.227 583.389 304.676C587.307 307.288 590.377 310.814 592.597 315.255C594.716 319.494 595.822 324.327 595.919 329.755H543.462C544.339 321.766 546.543 315.364 550.079 310.552C554.912 304.021 561.64 300.756 570.261 300.756L571.185 300.772ZM570.261 303.477C562.441 303.477 556.553 306.383 552.269 312.173C549.526 315.91 547.601 320.83 546.585 327.034H593.052C592.694 323.095 591.719 319.585 590.163 316.473C588.142 312.431 585.382 309.275 581.879 306.94L581.861 306.927L581.845 306.916C578.547 304.642 574.718 303.477 570.261 303.477Z" fill="black"/>
<path d="M414.041 344.275C415.096 344.276 416.191 344.548 417.142 345.261C418.081 345.966 418.649 346.927 418.973 347.9H418.97L422.88 359.232C423.933 362.147 425.426 364.526 427.328 366.428L428.083 367.149C429.884 368.785 431.959 370.119 434.326 371.148L435.389 371.589C437.879 372.583 440.573 373.352 443.475 373.893C446.981 374.392 450.622 374.646 454.401 374.646V377.367L452.939 377.354C450.025 377.305 447.184 377.109 444.416 376.766L443.037 376.583C439.951 376.011 437.065 375.188 434.379 374.117L433.241 373.644C430.612 372.501 428.284 371.006 426.255 369.163L425.404 368.353C423.184 366.132 421.485 363.39 420.31 360.125L416.39 348.759C415.998 347.584 415.215 346.997 414.041 346.997L410.511 347.193L410.054 347.22C409.054 347.348 408.553 347.926 408.553 348.955L409.337 377.758L409.361 378.231C409.475 379.287 409.991 380.043 410.905 380.5C413.387 381.676 416.783 382.983 421.094 384.42C425.535 385.726 430.694 386.902 436.571 387.947C441.715 388.861 447.259 389.376 453.202 389.491L455.775 389.514C467.008 389.514 476.609 387.816 484.577 384.42C492.169 381.236 498.095 376.788 502.358 371.079L503.19 369.92C507.231 364.042 509.377 357.073 509.629 349.014L509.656 347.387C509.656 340.897 508.392 335.325 505.866 330.671L505.345 329.755C502.472 324.922 497.704 320.611 491.043 316.823C484.381 312.904 475.366 309.18 464.002 305.653C454.99 302.78 447.871 300.038 442.646 297.426C437.552 294.813 433.894 291.939 431.673 288.805C429.714 285.743 428.673 282.163 428.551 278.068L428.537 277.244C428.537 270.019 431.007 264.343 435.944 260.218L436.965 259.412C442.581 255.233 450.68 253.143 461.26 253.143L463.048 253.165C467.162 253.265 470.877 253.715 474.191 254.515C477.979 255.429 481.18 256.932 483.793 259.022C486.405 261.112 488.299 264.052 489.475 267.839L493.982 281.555C494.374 282.86 495.156 283.447 496.331 283.317L500.838 283.123C501.981 283.009 502.625 282.493 502.768 281.579L502.797 281.162L502.013 253.927C502.013 252.898 501.664 252.02 500.963 251.291L500.642 250.988C498.699 249.617 496.057 248.294 492.714 247.023L491.237 246.481C487.808 245.11 483.93 243.939 479.602 242.968L477.718 242.564C473.26 241.649 468.453 241.134 463.295 241.02L461.063 240.996C450.483 240.996 441.275 242.628 433.438 245.894C425.601 249.028 419.526 253.601 415.215 259.609C411.035 265.487 408.946 272.542 408.946 280.771L408.962 281.985C409.131 288.009 410.563 293.286 413.257 297.816C416.261 302.649 421.092 307.026 427.754 310.945C434.546 314.733 443.69 318.586 455.185 322.505C464.458 325.509 471.643 328.383 476.737 331.126C481.831 333.869 485.36 336.872 487.319 340.138C489.409 343.272 490.453 347.258 490.453 352.091L490.418 353.563C490.051 360.827 486.928 366.541 481.05 370.704L479.844 371.51C473.659 375.414 465.178 377.367 454.401 377.367V374.646C465.596 374.646 473.844 372.473 479.477 368.483L480.479 367.733C485.326 363.898 487.731 358.769 487.731 352.091C487.731 347.644 486.773 344.224 485.055 341.647L485.018 341.594L484.986 341.538C483.477 339.024 480.695 336.483 476.341 334.015L475.448 333.52C470.563 330.89 463.555 328.076 454.347 325.093L454.326 325.088L454.308 325.08C442.734 321.134 433.421 317.219 426.43 313.32L426.401 313.304L426.374 313.291C419.463 309.226 414.249 304.57 410.945 299.254L410.931 299.23L410.915 299.206C407.754 293.889 406.225 287.711 406.225 280.771C406.225 272.06 408.444 264.435 412.996 258.033L413.004 258.023L413.897 256.827C418.173 251.326 423.871 247.063 430.9 244.004L432.425 243.366C440.657 239.943 450.225 238.274 461.063 238.274C467.228 238.274 472.966 238.811 478.265 239.898C483.44 240.96 488.072 242.295 492.145 243.916H492.148C495.793 245.21 498.846 246.598 501.232 248.11L502.212 248.766L502.316 248.838L502.414 248.923C503.895 250.193 504.708 251.891 504.729 253.85H504.734L505.518 281.085V281.162C505.518 282.264 505.198 283.491 504.232 284.457C503.307 285.382 502.129 285.726 501.109 285.828L501.032 285.836L500.958 285.842L496.459 286.033C495.383 286.119 494.232 285.902 493.23 285.151C492.244 284.411 491.699 283.38 491.396 282.403L486.889 268.687L486.881 268.666L486.876 268.645C485.896 265.488 484.407 263.146 482.483 261.472L482.092 261.148C480.12 259.57 477.713 258.342 474.821 257.499L473.553 257.161C470.017 256.308 465.927 255.865 461.26 255.865C450.981 255.865 443.55 257.904 438.588 261.597C433.738 265.206 431.259 270.298 431.259 277.244C431.259 281.215 432.183 284.524 433.93 287.279C435.808 289.908 439.037 292.515 443.887 295.002H443.885C448.925 297.52 455.881 300.207 464.807 303.054H464.81C476.279 306.614 485.51 310.411 492.422 314.476H492.419C499.332 318.412 504.502 323.011 507.684 328.362C510.86 333.703 512.377 340.088 512.377 347.387C512.377 356.029 510.375 363.661 506.278 370.176L505.433 371.462C500.786 378.222 494.138 383.355 485.64 386.921L485.642 386.923C477.253 390.499 467.27 392.236 455.775 392.236C448.716 392.236 442.153 391.702 436.095 390.625C430.146 389.568 424.885 388.371 420.326 387.03L420.278 387.016L420.233 387C415.877 385.548 412.364 384.204 409.741 382.961L409.688 382.934C408.739 382.46 407.921 381.748 407.365 380.774C406.831 379.84 406.625 378.821 406.616 377.829V377.832L405.834 349.03L405.832 348.992V348.955C405.832 347.87 406.146 346.578 407.221 345.609C408.193 344.735 409.383 344.496 410.363 344.475L413.889 344.278L413.964 344.275H414.041Z" fill="black"/>
<path d="M906.66 334.201H902.85L907.137 329.439C929.678 304.675 947.775 284.356 961.427 268.482C975.396 252.607 984.603 241.495 989.048 235.146H1004.76C994.922 242.448 982.698 253.401 968.094 268.005C953.807 282.61 934.917 302.929 911.423 328.963L906.66 334.201ZM997.144 338.011C983.809 353.25 969.84 364.839 955.236 372.776C940.949 380.713 926.821 384.682 912.851 384.682C902.374 384.682 893.643 385.634 886.659 387.539C879.356 389.444 875.705 391.825 875.705 394.682C875.705 396.27 877.134 397.064 879.991 397.064C889.834 397.064 899.358 394.365 908.565 388.968C918.09 383.57 926.662 376.427 934.282 367.537C941.901 358.648 947.934 348.647 952.378 337.535C956.823 326.105 959.046 314.517 959.046 302.77C959.046 295.785 959.522 289.594 960.474 284.197C961.744 278.8 964.125 273.244 967.618 267.529C971.11 261.497 976.666 254.512 984.286 246.575L1004.29 235.146C995.715 241.813 988.889 247.369 983.809 251.814C979.047 255.941 975.714 259.751 973.809 263.243C971.904 266.418 970.951 269.91 970.951 273.72C970.951 277.847 971.586 283.562 972.856 290.864C974.444 297.849 975.237 304.993 975.237 312.295C975.237 323.089 972.539 333.725 967.141 344.202C961.744 354.362 954.442 363.727 945.235 372.3C936.028 380.554 925.868 387.221 914.756 392.301C903.644 397.064 892.373 399.445 880.944 399.445C875.864 399.445 873.324 397.857 873.324 394.682C873.324 391.19 877.134 388.333 884.754 386.11C892.373 383.57 901.581 382.3 912.375 382.3C939.361 382.3 966.03 367.855 992.382 338.964L996.668 334.201H1000.48L997.144 338.011Z" fill="white"/>
<path d="M523.802 645.178C506.657 645.178 493.482 642.004 484.275 635.654C475.067 629.304 470.464 620.097 470.464 608.033C470.464 600.413 473.004 593.905 478.084 588.507C482.846 583.11 489.037 579.459 496.656 577.554V579.935C489.672 581.522 484.116 584.856 479.988 589.936C475.544 595.016 473.321 601.048 473.321 608.033C473.321 618.827 477.449 627.241 485.703 633.273C493.958 639.305 505.229 642.321 519.516 642.321C537.93 642.321 556.82 637.083 576.187 626.606C595.236 616.446 614.92 602.159 635.239 583.745C655.558 565.331 676.512 543.583 698.102 518.501C719.373 493.738 741.121 466.751 763.345 437.542C785.886 408.334 808.904 377.855 832.398 346.106L833.351 351.345H823.826L863.829 310.389L884.783 285.149H911.452C903.198 291.181 894.308 298.166 884.783 306.103C875.259 314.04 865.893 322.295 856.686 330.867C847.796 339.122 839.7 347.376 832.398 355.631C810.809 388.015 789.855 418.652 769.536 447.543C749.534 476.752 729.691 503.421 710.007 527.55C690.323 551.679 670.639 572.474 650.955 589.936C630.953 607.715 610.475 621.367 589.521 630.892C568.567 640.416 546.661 645.178 523.802 645.178ZM753.82 399.444C745.883 399.444 741.915 394.999 741.915 386.11C741.915 378.173 744.296 370.712 749.058 363.727C753.82 356.742 759.694 350.075 766.679 343.725C773.981 337.058 781.124 330.708 788.109 324.676C795.411 318.644 801.443 312.929 806.206 307.532C810.968 301.817 813.349 296.261 813.349 290.864C813.349 287.371 811.444 285.625 807.634 285.625C803.824 285.625 798.427 287.689 791.443 291.816C784.775 295.626 777.314 300.865 769.06 307.532C761.123 314.199 753.503 321.501 746.201 329.438L741.915 334.201H738.105L742.391 329.438C755.09 315.469 767.314 304.357 779.061 296.102C791.125 287.53 800.808 283.244 808.111 283.244C810.968 283.244 813.984 284.514 817.159 287.054C820.651 289.594 822.397 293.88 822.397 299.912C822.397 306.897 819.857 313.882 814.778 320.866C809.698 327.534 803.348 334.042 795.729 340.392C788.426 346.741 780.965 352.774 773.346 358.488C765.726 364.203 759.376 369.759 754.297 375.156C749.217 380.554 746.677 385.633 746.677 390.396C746.677 392.618 747.471 394.364 749.058 395.634C750.645 396.587 752.392 397.063 754.297 397.063C758.741 397.063 764.774 394.999 772.393 390.872C780.33 386.427 788.903 380.712 798.11 373.728C807.317 366.743 815.889 359.282 823.826 351.345H827.16C818.905 359.917 810.015 367.854 800.491 375.156C790.966 382.459 782.077 388.332 773.822 392.777C765.567 397.222 758.9 399.444 753.82 399.444Z" fill="white"/>
<path d="M592.338 398.491C584.401 398.491 580.432 392.3 580.432 379.918C580.432 371.664 582.972 362.933 588.052 353.726C592.814 344.519 599.323 335.629 607.577 327.057C615.832 318.167 625.039 310.23 635.199 303.245C645.358 295.943 655.835 290.228 666.63 286.101C677.742 281.974 688.219 279.91 698.061 279.91C706.316 279.91 710.443 283.085 710.443 289.435C710.443 295.467 706.633 303.087 699.013 312.294C691.394 321.183 681.869 331.66 670.44 343.725C661.55 352.932 652.026 361.822 641.866 370.394C632.024 378.648 622.658 385.474 613.768 390.872C605.196 395.951 598.053 398.491 592.338 398.491ZM592.814 396.11C597.577 396.11 603.926 393.888 611.863 389.443C619.801 384.681 628.69 378.172 638.532 369.918C648.374 361.663 658.375 352.297 668.535 341.82C679.964 329.755 689.171 319.437 696.156 310.865C703.458 302.293 707.109 295.308 707.109 289.911C707.109 285.784 704.411 283.72 699.013 283.72C694.251 283.72 688.06 285.625 680.441 289.435C673.138 293.245 665.201 298.483 656.629 305.15C648.057 311.5 639.644 318.643 631.389 326.581C623.134 334.518 615.515 342.455 608.53 350.392C601.863 358.329 596.465 365.79 592.338 372.775C588.211 379.76 586.147 385.633 586.147 390.395C586.147 394.205 588.369 396.11 592.814 396.11ZM741.874 334.2L738.541 338.01C728.381 349.44 718.063 359.917 707.586 369.441C697.426 378.648 687.901 385.951 679.012 391.348C670.44 396.745 663.614 399.444 658.534 399.444C655.677 399.444 653.137 398.333 650.914 396.11C649.009 394.205 648.057 391.665 648.057 388.49C648.057 380.236 652.502 369.124 661.391 355.154C670.598 341.185 683.298 325.946 699.49 309.436H701.395L723.301 285.149H751.399C747.271 287.689 742.827 290.863 738.064 294.673C733.302 298.166 728.857 301.975 724.73 306.103C706.633 324.199 692.346 338.645 681.869 349.44C671.392 360.234 663.931 368.648 659.486 374.68C655.359 380.712 653.295 385.792 653.295 389.919C653.295 394.681 655.2 397.063 659.01 397.063C663.455 397.063 669.487 394.681 677.107 389.919C685.044 384.839 693.934 377.855 703.776 368.965C713.618 360.075 723.619 350.075 733.778 338.963L738.064 334.2H741.874Z" fill="white"/>
<path d="M649.441 77.9892C662.775 55.1302 675.792 37.0335 688.491 23.699C701.508 10.0471 711.985 3.22119 719.923 3.22119C726.907 3.22119 730.4 6.87229 730.4 14.1745C730.4 27.5089 725.002 42.1133 714.208 57.9876C703.413 73.5444 688.65 89.26 669.919 105.134C651.187 120.691 629.915 135.772 606.104 150.376C582.61 164.663 557.846 177.521 531.812 188.951C505.778 200.38 479.903 209.429 454.187 216.096C428.47 222.445 404.5 225.62 382.276 225.62C347.987 225.62 318.303 221.493 293.221 213.238C268.457 204.984 249.249 193.237 235.597 177.997C222.263 162.441 215.596 144.026 215.596 122.755C215.596 106.88 220.041 91.9586 228.93 77.9892C237.82 64.0198 250.043 51.7966 265.6 41.3195C281.474 30.525 299.73 22.1116 320.366 16.0794C341.003 10.0472 363.068 7.03103 386.562 7.03103C414.183 7.03103 441.963 10.3646 469.902 17.0318C498.158 23.3816 525.145 32.4299 550.861 44.1769C576.895 55.9239 600.548 69.5758 621.819 85.1326C643.408 100.372 661.346 116.881 675.633 134.661C689.92 152.44 699.445 170.695 704.207 189.427L702.302 189.903C697.222 171.489 687.539 153.551 673.252 136.089C658.965 118.31 641.186 101.801 619.914 86.5613C598.96 71.322 575.625 57.9876 549.909 46.5581C524.192 35.1286 497.365 26.239 469.426 19.8892C441.805 13.222 414.183 9.88841 386.562 9.88841C363.068 9.88841 341.003 12.7458 320.366 18.4605C300.047 24.1753 282.268 32.1124 267.029 42.272C251.789 52.4316 239.883 64.3373 231.311 77.9892C222.739 91.6411 218.453 106.404 218.453 122.279C218.453 154.027 232.74 178.791 261.314 196.57C290.205 214.032 330.526 222.763 382.276 222.763C403.865 222.763 427.359 219.588 452.758 213.238C478.157 206.571 503.714 197.682 529.431 186.57C555.147 175.14 579.752 162.441 603.246 148.471C627.058 134.184 648.329 119.262 667.061 103.706C685.793 88.1488 700.556 72.7507 711.351 57.5114C722.145 42.272 727.542 28.1439 727.542 15.1269C727.542 9.41218 725.32 6.55481 720.875 6.55481C713.573 6.55481 704.207 12.7458 692.778 25.1277C681.348 37.5097 668.649 55.1302 654.679 77.9892C643.567 96.0859 633.09 116.564 623.248 139.423C613.723 161.964 603.881 185.458 593.722 209.905C583.562 234.351 572.45 258.639 560.386 282.768C548.639 306.897 535.146 329.756 519.906 351.345C504.667 372.616 486.888 391.507 466.569 408.016C446.567 424.843 423.232 438.019 396.563 447.543C370.212 457.068 339.733 461.83 305.127 461.83C274.013 461.83 244.963 457.227 217.977 448.019C190.991 438.812 167.338 425.954 147.019 409.445C126.7 392.936 110.825 373.728 99.3958 351.821C87.9662 329.915 82.2515 306.421 82.2515 281.339C82.2515 256.893 87.8075 234.034 98.9195 212.762C110.349 191.173 126.065 172.283 146.066 156.091C166.385 139.582 189.721 126.723 216.072 117.516C242.741 108.309 271.156 103.706 301.317 103.706C334.336 103.706 363.703 109.262 389.419 120.374C415.136 131.168 435.296 146.249 449.901 165.615C464.822 184.665 472.283 206.571 472.283 231.335C472.283 250.067 467.68 267.687 458.473 284.197C449.583 300.388 437.042 314.675 420.851 327.057C404.659 339.439 385.768 349.123 364.179 356.107C342.908 363.092 319.89 366.584 295.126 366.584C270.362 366.584 248.773 362.933 230.359 355.631C211.945 348.011 197.658 337.375 187.498 323.724C177.339 310.072 172.259 294.197 172.259 276.101C172.259 257.686 177.815 241.177 188.927 226.573C200.039 211.651 214.961 199.904 233.692 191.332C252.742 182.442 274.013 177.997 297.507 177.997C322.906 177.997 343.543 183.236 359.417 193.713C375.291 203.873 383.228 217.366 383.228 234.192C383.228 245.939 379.419 256.575 371.799 266.1C364.497 275.307 354.337 282.609 341.32 288.006C328.621 293.404 314.016 296.102 297.507 296.102C288.618 296.102 281.474 294.356 276.077 290.864C270.68 287.371 267.981 282.927 267.981 277.529C267.981 269.91 274.172 263.877 286.554 259.433C299.253 254.67 315.921 252.289 336.558 252.289C369.894 252.289 399.261 257.845 424.66 268.957C450.377 280.069 470.378 295.467 484.665 315.151C498.952 334.836 506.096 357.536 506.096 383.252C506.096 402.936 500.381 421.192 488.951 438.019C477.839 455.163 462.283 470.085 442.281 482.784C422.597 495.801 399.579 505.961 373.228 513.263C346.876 520.565 318.461 524.216 287.983 524.216C246.392 524.216 208.135 518.501 173.211 507.072C138.605 495.96 108.444 480.086 82.7277 459.449C57.3288 438.812 37.6447 414.366 23.6753 386.11C9.70589 357.853 2.72119 326.898 2.72119 293.245C2.72119 261.496 9.3884 231.176 22.7228 202.285C36.0572 173.394 54.7889 147.36 78.9179 124.183C103.364 101.007 132.256 82.1165 165.592 67.5122L167.02 69.8933C134.319 84.1802 105.904 102.912 81.7753 126.088C57.6463 149.265 39.0734 175.299 26.0564 204.19C12.722 232.764 6.0548 262.766 6.0548 294.197C6.0548 327.533 13.0395 358.012 27.0089 385.633C40.6608 413.255 60.0275 437.225 85.1089 457.544C110.19 477.863 139.875 493.579 174.164 504.691C208.77 515.803 246.709 521.359 287.983 521.359C318.144 521.359 346.241 517.708 372.275 510.406C398.309 503.421 421.009 493.579 440.376 480.879C460.06 468.497 475.458 453.893 486.57 437.066C497.682 420.557 503.238 402.619 503.238 383.252C503.238 358.171 496.095 336.106 481.808 317.056C467.839 297.69 448.313 282.609 423.232 271.815C398.15 260.703 369.418 255.147 337.034 255.147C316.715 255.147 300.523 257.21 288.459 261.338C276.712 265.147 270.838 270.545 270.838 277.529C270.838 281.974 273.219 285.784 277.982 288.959C283.062 291.816 289.57 293.245 297.507 293.245C313.381 293.245 327.51 290.705 339.892 285.625C352.274 280.228 362.116 273.085 369.418 264.195C376.72 254.988 380.371 244.828 380.371 233.716C380.371 218.159 372.593 205.46 357.036 195.618C341.797 185.776 321.954 180.855 297.507 180.855C274.648 180.855 253.853 185.141 235.121 193.713C216.707 201.968 202.103 213.238 191.308 227.525C180.513 241.812 175.116 258.004 175.116 276.101C175.116 293.562 180.037 308.96 189.879 322.295C200.039 335.312 214.008 345.471 231.788 352.774C249.884 360.076 270.997 363.727 295.126 363.727C319.255 363.727 341.797 360.393 362.751 353.726C384.022 346.741 402.595 337.217 418.469 325.152C434.344 313.088 446.726 299.118 455.615 283.244C464.822 267.052 469.426 249.749 469.426 231.335C469.426 207.206 462.124 185.776 447.519 167.044C432.915 148.312 412.913 133.549 387.515 122.755C362.433 111.96 333.701 106.563 301.317 106.563C271.473 106.563 243.535 111.167 217.501 120.374C191.467 129.263 168.449 141.804 148.447 157.996C128.763 173.87 113.206 192.443 101.777 213.715C90.6649 234.669 85.1089 257.21 85.1089 281.339C85.1089 302.293 90.1887 321.819 100.348 339.915C110.825 358.012 125.112 374.045 143.209 388.015C161.623 401.666 182.736 412.302 206.547 419.922C230.676 427.859 256.551 431.828 284.173 431.828C315.921 431.828 344.813 427.224 370.846 418.017C396.88 408.81 420.533 396.428 441.805 380.871C463.394 364.997 482.919 346.9 500.381 326.581C517.843 306.262 533.717 284.832 548.004 262.29C562.291 239.748 575.308 217.366 587.055 195.142C599.119 172.6 610.231 151.329 620.391 131.327C630.55 111.008 640.234 93.2286 649.441 77.9892Z" fill="white"/>
<path d="M975.236 312.295C975.236 304.993 974.443 297.849 972.855 290.865C971.744 284.475 971.12 279.301 970.982 275.342L970.952 273.721C970.952 269.911 971.904 266.417 973.809 263.242C974.206 262.516 974.663 261.775 975.183 261.021C986.698 249.858 996.559 241.232 1004.76 235.144H989.047C984.603 241.494 975.397 252.607 961.428 268.48C947.776 284.354 929.678 304.675 907.137 329.439L902.85 334.201H906.661L911.424 328.963C933.89 304.068 952.148 284.401 966.195 269.958C963.471 274.821 961.563 279.567 960.474 284.197L960.139 286.259C959.41 291.155 959.047 296.659 959.047 302.77L959.02 304.971C958.76 315.965 956.546 326.819 952.379 337.533C947.934 348.646 941.901 358.647 934.281 367.537L932.841 369.182C928.547 373.993 923.96 378.263 919.08 381.999C916.847 382.198 914.612 382.3 912.375 382.3C901.581 382.3 892.372 383.571 884.753 386.11C877.135 388.333 873.326 391.189 873.325 394.681L873.355 395.258C873.652 398.049 876.182 399.443 880.944 399.443C891.659 399.443 902.234 397.352 912.67 393.166L914.756 392.3C921.144 389.38 927.215 385.932 932.974 381.962C940.351 379.982 947.772 376.921 955.236 372.775C968.927 365.334 982.061 354.685 994.636 340.826L997.145 338.012L1000.48 334.201H996.667L992.383 338.963L989.911 341.629C973.04 359.534 956.036 371.517 938.905 377.598C941.061 375.91 943.175 374.147 945.235 372.299C953.867 364.263 960.824 355.528 966.108 346.096L967.141 344.201C972.201 334.379 974.891 324.418 975.207 314.317L975.236 312.295ZM915.466 384.636C913.224 386.186 910.923 387.631 908.564 388.967C899.357 394.364 889.832 397.062 879.99 397.062C877.312 397.062 875.89 396.366 875.722 394.971L875.706 394.681C875.707 391.824 879.357 389.442 886.658 387.538C893.643 385.633 902.374 384.681 912.851 384.681C913.722 384.681 914.594 384.666 915.466 384.636ZM905.5 387.575C898.424 387.923 892.392 388.795 887.376 390.163L887.346 390.171C883.804 391.095 881.393 392.079 879.929 393.033C879.143 393.546 878.769 393.952 878.59 394.235C878.597 394.236 878.604 394.239 878.611 394.24C878.942 394.301 879.395 394.341 879.99 394.341C888.715 394.341 897.209 392.107 905.5 387.575ZM973.674 273.721C973.674 277.604 974.273 283.117 975.526 290.333C977.148 297.497 977.958 304.819 977.958 312.295C977.958 323.562 975.137 334.621 969.56 345.448L969.544 345.479C965.324 353.423 959.977 360.874 953.524 367.84C965.79 360.817 978.073 350.613 990.371 337.13L995.455 331.48H1006.48L999.191 339.803C985.69 355.233 971.477 367.046 956.535 375.167L956.533 375.164C949.057 379.315 941.592 382.419 934.143 384.463C928.367 388.413 922.283 391.853 915.888 394.777L915.859 394.79L915.827 394.803C904.397 399.702 892.763 402.165 880.944 402.165C878.21 402.165 875.696 401.754 873.788 400.562C871.666 399.236 870.604 397.139 870.604 394.681C870.604 391.792 872.226 389.484 874.548 387.742C876.813 386.043 879.996 384.672 883.894 383.527L885.406 383.046C893.062 380.714 902.069 379.578 912.375 379.578C914.269 379.578 916.162 379.495 918.057 379.347C923.091 375.422 927.815 370.902 932.216 365.767L933.59 364.13C940.361 355.893 945.777 346.701 949.841 336.548C954.169 325.419 956.325 314.165 956.325 302.77C956.325 295.668 956.809 289.313 957.795 283.724L957.808 283.649L957.824 283.572C957.928 283.132 958.042 282.693 958.159 282.252C945.805 295.264 930.902 311.44 913.443 330.786L913.435 330.794L907.865 336.922H896.741L905.115 327.618L905.125 327.608L913.366 318.532C932.108 297.847 947.438 280.573 959.363 266.708L959.384 266.684L964.399 260.954C975.566 248.122 983.015 239.016 986.818 233.584L987.631 232.423H1013L1006.39 237.331C998.354 243.29 988.653 251.763 977.272 262.785C976.865 263.388 976.509 263.977 976.198 264.547L976.172 264.595L976.142 264.643C974.499 267.382 973.674 270.389 973.674 273.721Z" fill="black"/>
<path d="M473.322 608.033C473.322 601.048 475.545 595.015 479.99 589.935C484.117 584.856 489.674 581.522 496.658 579.935V577.553C489.038 579.458 482.847 583.111 478.084 588.508C473.005 593.905 470.465 600.413 470.465 608.033L470.478 609.154C470.757 620.669 475.354 629.504 484.274 635.655C492.905 641.608 505.026 644.77 520.634 645.142L523.802 645.18C545.946 645.18 567.197 640.708 587.553 631.77L589.523 630.893C610.476 621.368 630.953 607.714 650.954 589.935C669.408 573.565 687.862 554.265 706.316 532.035L710.007 527.549C729.691 503.421 749.534 476.753 769.536 447.544C789.855 418.653 810.81 388.015 832.4 355.631C838.789 348.408 845.784 341.184 853.389 333.962L856.687 330.868C864.743 323.368 872.919 316.109 881.218 309.095L884.785 306.103C894.309 298.166 903.199 291.18 911.453 285.148H884.785L863.83 310.389L823.826 351.344C815.889 359.282 807.317 366.744 798.109 373.729C788.903 380.713 780.329 386.428 772.393 390.873C764.774 394.999 758.742 397.062 754.297 397.062C752.393 397.062 750.647 396.587 749.059 395.635C747.671 394.524 746.889 393.048 746.715 391.207L746.678 390.397C746.678 385.932 748.911 381.188 753.375 376.166L754.297 375.156C758.742 370.434 764.159 365.59 770.548 360.625L773.347 358.488C780.966 352.773 788.427 346.742 795.728 340.393C802.872 334.44 808.899 328.346 813.81 322.114L814.777 320.865C819.54 314.317 822.07 307.769 822.367 301.221L822.397 299.913C822.397 293.881 820.651 289.593 817.159 287.053C813.984 284.514 810.967 283.245 808.11 283.245C800.808 283.246 791.124 287.531 779.06 296.102L776.852 297.684C765.783 305.757 754.297 316.342 742.392 329.438L738.105 334.201H738.065L735.615 336.922H731.995L740.369 327.618L740.377 327.607L742.772 325.003C754.717 312.139 766.289 301.75 777.495 293.875C789.624 285.259 799.905 280.524 808.11 280.524C811.8 280.524 815.402 282.164 818.859 284.93C823.239 288.173 825.118 293.43 825.118 299.913C825.118 307.597 822.315 315.13 816.978 322.468L816.962 322.492L816.943 322.516C811.72 329.371 805.22 336.024 797.472 342.482C791.053 348.061 784.512 353.399 777.848 358.493L774.978 360.664C768.391 365.605 762.802 370.399 758.193 375.042L756.277 377.022C751.418 382.185 749.4 386.627 749.4 390.397C749.4 391.805 749.839 392.709 750.633 393.397C751.738 394.022 752.941 394.341 754.297 394.341C758.03 394.34 763.551 392.561 771.069 388.491C778.87 384.122 787.335 378.486 796.464 371.56L799.853 368.945C807.687 362.795 815.036 356.286 821.902 349.42L861.818 308.55L883.507 282.427H919.79L913.058 287.346C904.859 293.338 896.015 300.286 886.525 308.194C877.04 316.099 867.712 324.32 858.542 332.859L858.539 332.861C849.757 341.016 841.761 349.161 834.555 357.297C812.992 389.639 792.063 420.245 771.763 449.11L771.76 449.107C752.98 476.53 734.335 501.731 715.819 524.703L712.117 529.271C692.358 553.493 672.571 574.394 652.761 591.968L652.764 591.971C633.221 609.342 613.18 622.849 592.637 632.453L590.647 633.37C569.342 643.053 547.052 647.901 523.802 647.901C506.925 647.901 493.441 644.881 483.665 638.52L482.73 637.895C472.72 630.992 467.744 620.909 467.744 608.033C467.744 599.741 470.532 592.56 476.102 586.642C481.254 580.83 487.923 576.933 495.996 574.915L499.379 574.069V582.108L497.261 582.589C490.811 584.055 485.806 587.09 482.1 591.652L482.071 591.691L482.036 591.729C478.042 596.294 476.043 601.682 476.043 608.033C476.043 618.016 479.8 625.589 487.309 631.076C494.944 636.656 505.583 639.599 519.515 639.599V642.32L516.871 642.286C504.266 641.944 494.139 639.125 486.487 633.829L485.703 633.274C477.707 627.43 473.582 619.35 473.333 609.037L473.322 608.033ZM828.514 351.344C806.366 381.21 784.645 409.944 763.346 437.541L759.185 442.992C738.405 470.115 718.044 495.284 698.101 518.5L694.062 523.164C673.896 546.288 654.289 566.482 635.24 583.745L631.437 587.15C612.462 603.929 594.046 617.082 576.187 626.606C556.82 637.083 537.929 642.32 519.515 642.32V639.599C537.397 639.599 555.846 634.516 574.893 624.212L574.906 624.204L578.441 622.274C596.154 612.389 614.478 598.887 633.412 581.728C653.633 563.403 674.509 541.738 696.039 516.725C717.271 492.007 738.986 465.064 761.18 435.894L761.191 435.88L769.661 424.873C783.341 407.047 797.193 388.756 811.222 370.003C808.838 372.019 806.414 373.994 803.945 375.924L802.146 377.316C793.138 384.223 784.654 389.892 776.698 394.306L775.111 395.172C766.744 399.678 759.59 402.164 753.822 402.164C749.349 402.164 745.519 400.899 742.862 397.923C740.258 395.006 739.195 390.903 739.195 386.11C739.195 377.59 741.762 369.601 746.811 362.195L747.741 360.853C752.147 354.61 757.412 348.636 763.524 342.931L764.848 341.711C772.166 335.029 779.328 328.665 786.331 322.617L786.353 322.598L786.376 322.579C793.586 316.624 799.495 311.016 804.134 305.762C808.627 300.363 810.629 295.414 810.629 290.864C810.629 289.602 810.294 289.135 810.082 288.94C809.824 288.704 809.174 288.348 807.634 288.348C804.614 288.348 799.766 290.059 792.826 294.16L792.81 294.17L792.792 294.178C786.299 297.888 778.973 303.022 770.809 309.613L770.811 309.616C762.974 316.199 755.442 323.41 748.222 331.256L748.225 331.259L743.128 336.922H739.495L741.873 334.201H741.916L746.2 329.438C753.502 321.501 761.123 314.2 769.06 307.532C776.283 301.698 782.899 296.958 788.906 293.312L791.442 291.816C798.426 287.689 803.824 285.627 807.634 285.626C811.444 285.626 813.35 287.372 813.35 290.864L813.321 291.877C813.042 296.956 810.672 302.175 806.207 307.532C801.445 312.93 795.411 318.644 788.109 324.676L782.842 329.26C777.544 333.904 772.156 338.725 766.679 343.725L765.382 344.919C758.964 350.908 753.524 357.178 749.059 363.726L748.193 365.041C744.007 371.645 741.916 378.669 741.916 386.11L741.927 386.929C742.166 395.272 746.132 399.443 753.822 399.443C758.901 399.443 765.568 397.222 773.822 392.778C782.077 388.333 790.966 382.458 800.491 375.156C810.015 367.854 818.904 359.916 827.159 351.344H828.514Z" fill="black"/>
<path d="M740.555 331.48L738.105 334.201H738.065L733.779 338.963L729.976 343.077C721.121 352.557 712.387 361.188 703.775 368.967L700.129 372.209C691.726 379.571 684.052 385.474 677.107 389.919C669.487 394.681 663.454 397.062 659.009 397.062C655.438 397.062 653.54 394.97 653.317 390.785L653.295 389.919C653.296 385.792 655.361 380.712 659.487 374.68C663.377 369.402 669.575 362.302 678.082 353.378L681.869 349.439C689.727 341.343 699.729 331.195 711.873 318.992L724.73 306.103C728.341 302.492 732.196 299.124 736.293 295.999L738.065 294.673C742.827 290.863 747.271 287.688 751.398 285.148H723.3L701.394 309.438H701.288C707.175 301.776 710.226 295.301 710.432 290.006L710.443 289.435C710.443 283.482 706.815 280.32 699.56 279.947L698.062 279.91C688.22 279.91 677.743 281.975 666.631 286.102L664.609 286.894C654.526 290.95 644.722 296.4 635.198 303.246C625.038 310.231 615.832 318.168 607.578 327.058L606.05 328.668C598.516 336.741 592.518 345.094 588.053 353.726C582.973 362.933 580.431 371.664 580.431 379.918L580.445 381.061C580.685 392.681 584.648 398.491 592.337 398.492C598.052 398.492 605.196 395.952 613.767 390.873C622.657 385.476 632.023 378.648 641.865 370.394C650.575 363.045 658.815 355.461 666.591 347.645C664.75 350.189 663.014 352.692 661.39 355.156C652.501 369.125 648.057 380.237 648.057 388.492L648.068 389.079C648.18 391.981 649.128 394.325 650.914 396.111C653.137 398.333 655.676 399.443 658.533 399.443C663.613 399.443 670.44 396.746 679.012 391.348C687.346 386.289 696.238 379.554 705.689 371.146L707.586 369.442C716.753 361.109 725.798 352.045 734.722 342.253L738.541 338.012L741.874 334.201H741.916L744.364 331.48H747.872L740.587 339.803L740.574 339.819C730.356 351.314 719.97 361.86 709.417 371.454L709.412 371.46C699.176 380.736 689.523 388.142 680.458 393.65L680.461 393.653C671.81 399.099 664.427 402.165 658.533 402.165C655.108 402.165 652.069 400.889 649.498 398.524L648.99 398.035C646.485 395.529 645.336 392.249 645.336 388.492C645.336 381.842 647.928 373.802 652.825 364.454C649.814 367.155 646.752 369.834 643.622 372.475L643.614 372.48C633.69 380.803 624.212 387.715 615.181 393.198L615.155 393.214C606.435 398.381 598.781 401.213 592.337 401.213C587.53 401.213 583.647 399.263 581.117 395.316C578.72 391.576 577.71 386.312 577.71 379.918C577.71 371.095 580.427 361.914 585.669 352.413C590.559 342.977 597.207 333.909 605.582 325.205L607.169 323.523C615.15 315.163 623.98 307.656 633.656 301.003C643.976 293.591 654.644 287.77 665.658 283.559L665.682 283.551L667.806 282.783C678.385 279.073 688.477 277.189 698.062 277.189C702.461 277.189 706.262 278.024 709.008 280.136C711.888 282.353 713.164 285.622 713.164 289.435C713.164 290.478 713.065 291.547 712.877 292.643L721.28 283.328L722.091 282.427H761.013L752.825 287.466C748.814 289.934 744.46 293.042 739.763 296.799L739.673 296.868C735.603 299.853 731.772 303.074 728.179 306.531L726.654 308.027C713.085 321.596 701.662 333.108 692.385 342.564L683.822 351.337C673.395 362.08 666.051 370.366 661.714 376.24C657.7 382.114 656.017 386.625 656.017 389.919C656.017 392.009 656.446 393.075 656.849 393.578C657.158 393.965 657.706 394.341 659.009 394.341C662.641 394.341 668.116 392.329 675.664 387.612C683.429 382.639 692.19 375.764 701.952 366.947L705.622 363.585C714.208 355.62 722.924 346.802 731.77 337.127L736.04 332.381L736.853 331.48H740.555ZM704.389 289.911C704.389 288.492 703.962 287.836 703.432 287.431C702.765 286.921 701.441 286.442 699.013 286.442C694.894 286.443 689.174 288.115 681.699 291.848L680.357 292.56C673.602 296.21 666.251 301.114 658.3 307.299L658.276 307.317L658.249 307.339C650.836 312.83 643.536 318.927 636.348 325.633L633.276 328.543C625.072 336.432 617.504 344.314 610.573 352.19C604.819 359.043 600.053 365.506 596.254 371.576L594.681 374.16C590.648 380.985 588.869 386.354 588.869 390.397C588.869 391.762 589.246 392.327 589.584 392.616C590.002 392.974 590.919 393.389 592.815 393.389C596.848 393.389 602.675 391.462 610.493 387.088C618.263 382.423 627.026 376.016 636.784 367.832L640.452 364.709C649.03 357.302 657.74 349.042 666.58 339.925C677.974 327.898 687.124 317.641 694.046 309.146L694.065 309.125L694.083 309.101C701.345 300.576 704.389 294.251 704.389 289.911ZM707.1 290.423C706.878 295.748 703.229 302.562 696.156 310.865C689.171 319.437 679.963 329.756 668.534 341.82C658.374 352.297 648.375 361.664 638.533 369.918C628.691 378.172 619.801 384.681 611.865 389.443C603.928 393.888 597.578 396.11 592.815 396.111C588.648 396.111 586.435 394.436 586.174 391.088L586.148 390.397C586.148 385.932 587.96 380.49 591.588 374.072L592.337 372.775C596.464 365.79 601.862 358.33 608.529 350.393C614.641 343.448 621.239 336.503 628.323 329.558L631.389 326.582C638.612 319.637 645.957 313.3 653.423 307.57L656.628 305.151C665.2 298.484 673.137 293.245 680.439 289.435C688.059 285.625 694.251 283.721 699.013 283.721L699.994 283.745C704.737 283.987 707.11 286.042 707.11 289.911L707.1 290.423Z" fill="black"/>
<path d="M0 293.246C0 261.102 6.75398 230.391 20.253 201.144L21.5313 198.414C34.9239 170.288 53.4341 144.888 77.0338 122.22L77.0445 122.21L79.3725 120.028C103.564 97.6128 131.948 79.2801 164.498 65.0195L166.694 64.0575L167.924 66.1118L170.946 71.1478L168.11 72.3862C136.697 86.1103 109.306 103.957 85.9126 125.914L83.6617 128.051C59.7694 151 41.4028 176.751 28.5366 205.308L28.5233 205.34C15.3565 233.554 8.77524 263.165 8.77517 294.197C8.77517 326.11 15.2509 355.312 28.1672 381.845L29.4375 384.404L29.4481 384.428L30.729 386.971C44.1195 413.155 62.805 435.973 86.8215 455.429L89.1601 457.3C113.456 476.484 142.059 491.424 175.004 502.101C209.306 513.115 246.957 518.639 287.983 518.639V521.36L284.122 521.341C244.341 521.005 207.688 515.457 174.164 504.692C140.947 493.927 112.049 478.842 87.4726 459.437L85.1101 457.545C60.0288 437.226 40.6604 413.256 27.0085 385.635C13.4756 358.876 6.498 329.436 6.07511 297.314L6.05385 294.197C6.05393 263.748 12.3126 234.64 24.8266 206.873L26.0571 204.189C38.6673 176.201 56.4909 150.894 79.5293 128.269L81.7749 126.09C105.904 102.913 134.319 84.1803 167.02 69.8934L165.591 67.5123C132.255 82.1166 103.364 101.008 78.918 124.184C54.7892 147.361 36.0563 173.395 22.7219 202.286L21.4914 204.997C8.97726 233.072 2.72131 262.489 2.72131 293.246L2.74257 296.392C3.16547 328.831 10.1431 358.737 23.6759 386.11C37.6453 414.366 57.3302 438.814 82.7289 459.45C108.445 480.086 138.607 495.961 173.213 507.073C207.044 518.145 244.004 523.855 284.093 524.201L287.983 524.217C317.51 524.217 345.099 520.79 370.752 513.937L373.229 513.262C399.58 505.96 422.598 495.8 442.282 482.783C462.283 470.084 477.839 455.163 488.951 438.02C500.024 421.719 505.733 404.075 506.079 385.092L506.095 383.253C506.095 378.719 505.869 374.278 505.425 369.931C509.434 365.19 513.302 360.317 517.02 355.304L519.906 351.344C535.145 329.755 548.638 306.896 560.385 282.767C571.696 260.146 582.169 237.387 591.805 214.487L593.722 209.905C603.868 185.492 613.697 162.027 623.209 139.513C634.667 131.977 645.47 124.32 655.618 116.538C661.991 122.876 667.871 129.392 673.253 136.09C687.54 153.551 697.223 171.489 702.303 189.902L704.208 189.426C699.595 171.28 690.51 153.582 676.958 136.329L675.635 134.66C670.195 127.891 664.223 121.31 657.725 114.909C660.664 112.631 663.549 110.345 666.376 108.045L669.918 105.135C688.65 89.2606 703.414 73.5445 714.209 57.9877C724.666 42.6091 730.058 28.4222 730.385 15.4273L730.401 14.1757C730.401 7.10188 727.123 3.45321 720.568 3.23194L719.922 3.22131C711.985 3.22165 701.508 10.0487 688.492 23.7002C675.793 37.0344 662.776 55.1302 649.442 77.9883C645.761 84.0816 642.005 90.5838 638.171 97.4892C632.975 93.2832 627.527 89.1602 621.82 85.1317C600.548 69.575 576.895 55.9234 550.861 44.1765C525.145 32.4297 498.158 23.3822 469.902 17.0325C443.71 10.7821 417.657 7.46012 391.744 7.06941L386.562 7.03221C363.068 7.03226 341.002 10.0463 320.365 16.0784C299.729 22.1107 281.473 30.5253 265.599 41.3197C250.043 51.7964 237.82 64.0194 228.93 77.9883C221.004 90.4439 216.613 103.658 215.754 117.628C189.533 126.827 166.303 139.648 146.066 156.09L144.203 157.616C125.086 173.465 109.991 191.848 98.9186 212.762C87.8067 234.034 82.2506 256.894 82.2506 281.34L82.2692 283.686C82.6152 307.888 88.3248 330.598 99.397 351.82C110.826 373.727 126.701 392.937 147.02 409.446C167.339 425.955 190.99 438.813 217.976 448.02C244.119 456.94 272.2 461.539 302.217 461.818L305.127 461.831C339.732 461.831 370.211 457.069 396.562 447.544C423.231 438.02 446.568 424.843 466.569 408.016C479.719 397.332 491.796 385.644 502.818 372.966C503.094 376.337 503.238 379.766 503.238 383.253L503.222 385.063C502.886 403.738 497.335 421.072 486.57 437.066C475.458 453.893 460.061 468.499 440.377 480.88C421.01 493.58 398.309 503.421 372.275 510.406C346.241 517.708 318.144 521.36 287.983 521.36V518.639C317.924 518.639 345.773 515.013 371.541 507.785L373.978 507.121C398.767 500.245 420.391 490.729 438.883 478.603L438.904 478.59L438.928 478.576C458.334 466.369 473.432 452.024 484.3 435.567L484.314 435.546L485.31 434.036C495.462 418.384 500.516 401.475 500.517 383.253C500.517 382.069 500.493 380.891 500.461 379.722C490.546 390.617 479.823 400.755 468.286 410.129C448.026 427.166 424.414 440.482 397.484 450.101L397.487 450.104C370.779 459.757 339.976 464.553 305.127 464.553C274.722 464.553 246.229 460.192 219.663 451.454L217.099 450.595C190.687 441.584 167.393 429.095 147.243 413.113L145.303 411.556C125.357 395.35 109.605 376.55 98.0841 355.158L96.9839 353.08C85.3486 330.779 79.5293 306.852 79.5293 281.34C79.5293 256.463 85.1891 233.171 96.5082 211.503L96.5135 211.489L97.6164 209.44C109.126 188.364 124.713 169.874 144.349 153.978L146.289 152.423C165.886 136.865 188.186 124.614 213.168 115.659C214.312 101.877 218.811 88.8238 226.634 76.5293L227.498 75.1899C236.534 61.4248 248.748 49.3887 264.079 39.0634C280.212 28.0941 298.73 19.5702 319.603 13.4687C340.509 7.35768 362.833 4.31094 386.562 4.3109C414.393 4.3109 442.374 7.66843 470.5 14.3776L475.815 15.6081C502.325 21.9172 527.719 30.6143 551.993 41.7023C578.165 53.5125 601.964 67.2465 623.388 82.91C628.226 86.3255 632.882 89.8138 637.361 93.3594C640.668 87.4662 643.915 81.8723 647.111 76.5824C660.503 53.6297 673.633 35.3525 686.52 21.8214L688.967 19.3073C694.611 13.6189 699.831 9.18343 704.626 6.05955C710.072 2.51088 715.204 0.500168 719.922 0.5C723.866 0.5 727.316 1.53795 729.747 4.07969C732.156 6.5988 733.122 10.1349 733.122 14.1757C733.122 28.2468 727.432 43.3828 716.46 59.5184L716.444 59.5397C705.481 75.339 690.54 91.2257 671.678 107.21L671.656 107.229C668.455 109.888 665.176 112.526 661.829 115.156C667.554 120.939 672.865 126.871 677.755 132.957C692.243 150.985 701.971 169.586 706.845 188.757L707.517 191.404L704.867 192.068L700.384 193.187L699.68 190.628C694.718 172.639 685.236 155.033 671.146 137.812L671.13 137.793C666.287 131.766 661.025 125.89 655.36 120.15C645.921 127.316 635.935 134.379 625.397 141.33C618.368 157.968 611.167 175.123 603.794 192.796L596.236 210.95C586.055 235.447 574.918 259.782 562.83 283.957L562.833 283.96C551.023 308.219 537.455 331.205 522.13 352.915L522.12 352.931C517.707 359.09 513.079 365.047 508.245 370.811C508.623 374.881 508.816 379.029 508.816 383.253C508.816 403.482 502.937 422.249 491.234 439.497L491.237 439.5C479.888 457.01 464.039 472.182 443.778 485.053L443.781 485.055C424.448 497.84 401.989 507.875 376.437 515.187L373.954 515.885C347.341 523.26 318.68 526.938 287.983 526.938C246.149 526.938 207.607 521.191 172.381 509.664L169.123 508.599C135.59 497.453 106.214 481.784 81.0254 461.571L81.0122 461.56C56.1245 441.339 36.6359 417.479 22.5784 389.988L21.2363 387.317C7.06919 358.661 7.39443e-05 327.288 0 293.246ZM169.537 276.102C169.537 257.095 175.287 240.005 186.761 224.926C198.169 209.614 213.457 197.602 232.542 188.866L234.373 188.029C236.055 187.274 237.755 186.553 239.47 185.865C237.406 183.913 235.437 181.898 233.57 179.814L233.552 179.79L233.53 179.769C220.207 164.224 213.333 145.892 212.897 124.894C189.39 133.536 168.485 145.278 150.161 160.111L150.156 160.114C130.741 175.771 115.425 194.066 104.175 215.003L104.173 215C93.2766 235.551 87.8314 257.652 87.8314 281.34C87.8315 301.819 92.7863 320.875 102.703 338.551L103.678 340.212C113.865 357.294 127.579 372.507 144.857 385.847C162.437 398.876 182.536 409.139 205.177 416.616L207.378 417.331L207.399 417.336L209.637 418.062C232.83 425.419 257.67 429.106 284.172 429.106V431.828L281.589 431.817C254.937 431.577 229.923 427.611 206.549 419.922C183.482 412.541 162.946 402.328 144.944 389.286L143.209 388.016C125.112 374.046 110.825 358.011 100.348 339.914C90.5064 322.383 85.4307 303.511 85.1234 283.298L85.1101 281.34C85.1101 257.211 90.6661 234.668 101.778 213.714C112.85 193.108 127.795 175.033 146.613 159.492L148.447 157.996C167.964 142.196 190.353 129.874 215.613 121.027C215.602 121.602 215.595 122.177 215.595 122.754C215.595 144.026 222.264 162.44 235.598 177.996C238.363 181.082 241.358 184.023 244.578 186.822C240.872 188.17 237.244 189.675 233.693 191.332L231.947 192.145C214.031 200.642 199.691 212.118 188.926 226.573C177.815 241.178 172.258 257.688 172.258 276.102L172.274 277.792C172.582 295.188 177.658 310.5 187.499 323.725C197.659 337.376 211.946 348.012 230.36 355.631C248.199 362.705 269.017 366.354 292.815 366.575L295.127 366.585C319.89 366.585 342.909 363.091 364.18 356.107C385.094 349.34 403.475 340.042 419.324 328.211L420.852 327.057C435.08 316.177 446.486 303.823 455.075 290.001C465.53 297.829 474.442 306.846 481.808 317.057C486.118 322.805 489.776 328.829 492.786 335.126C477.308 352.007 460.317 367.26 441.804 380.872L439.803 382.321C419.052 397.199 396.067 409.097 370.848 418.017L368.397 418.867C343.004 427.508 314.929 431.828 284.172 431.828V429.106C315.657 429.106 344.237 424.542 369.939 415.452L372.352 414.588C396.396 405.852 418.348 394.357 438.219 380.11L440.199 378.675C458.067 365.535 474.504 350.857 489.522 334.65C486.748 329.108 483.454 323.786 479.631 318.689L479.615 318.67L479.602 318.649C472.96 309.441 465.019 301.213 455.772 293.963C447.198 307.068 436.102 318.82 422.505 329.218C406.044 341.806 386.871 351.621 365.025 358.69L365.028 358.693C343.455 365.776 320.148 369.307 295.127 369.307C270.102 369.307 248.158 365.617 229.356 358.161L229.318 358.145C211.116 350.613 196.738 340.136 186.311 326.661L185.315 325.349C174.783 311.197 169.537 294.744 169.537 276.102ZM377.061 258.275C393.624 261.003 409.016 265.517 423.233 271.815C434.083 276.485 443.892 281.959 452.662 288.233C444.054 302.061 432.659 314.368 418.471 325.152L416.974 326.276C401.433 337.81 383.357 346.959 362.75 353.726C341.796 360.393 319.255 363.726 295.127 363.726V361.005C319.003 361.005 341.264 357.706 361.926 351.132C382.935 344.231 401.223 334.842 416.823 322.986L418.277 321.87C430.809 312.117 441.027 301.146 448.968 288.967C440.909 283.427 431.975 278.539 422.157 274.313L422.13 274.303C408.672 268.34 394.122 263.996 378.472 261.275C377.134 263.505 375.62 265.681 373.925 267.8C366.284 277.431 355.717 284.984 342.362 290.522L342.359 290.519C329.27 296.077 314.302 298.824 297.508 298.824C288.864 298.824 281.545 297.234 275.74 293.849L274.6 293.15C268.599 289.267 265.259 284.037 265.259 277.529C265.259 268.348 272.564 261.811 284.467 257.302L285.634 256.872C298.75 251.961 315.766 249.569 336.558 249.569C349.523 249.569 361.911 250.402 373.718 252.072C376.344 246.28 377.651 240.169 377.651 233.717C377.651 231.873 377.529 230.07 377.295 228.309C344.886 227.926 316.563 223.786 292.371 215.824L292.36 215.821C274.225 209.776 258.931 201.846 246.542 191.996C243.043 193.253 239.614 194.65 236.254 196.187L236.233 196.195C218.747 204.034 204.856 214.604 194.473 227.873L193.479 229.167C183.046 242.976 177.837 258.591 177.837 276.102C177.837 292.989 182.577 307.794 192.025 320.621L192.958 321.793C202.697 333.819 215.942 343.322 232.802 350.25C250.509 357.394 271.267 361.005 295.127 361.005V363.726L292.873 363.715C270.429 363.501 250.636 360.079 233.493 353.447L231.787 352.774C214.563 345.7 200.915 335.944 190.843 323.507L189.881 322.295C180.346 309.377 175.429 294.522 175.131 277.731L175.115 276.102C175.115 258.005 180.513 241.812 191.308 227.525C201.765 213.685 215.798 202.676 233.406 194.497L235.122 193.713C239.015 191.932 242.997 190.338 247.068 188.927C259.359 198.975 274.743 207.079 293.221 213.238C317.651 221.278 346.448 225.4 379.612 225.609C380.114 228.219 380.372 230.922 380.372 233.717L380.362 234.756C380.214 241.923 378.528 248.688 375.31 255.054C363.992 253.353 352.112 252.437 339.672 252.306L336.558 252.29C315.921 252.29 299.253 254.672 286.554 259.434C274.172 263.878 267.98 269.91 267.98 277.529L268.012 278.531C268.328 283.479 271.018 287.59 276.078 290.864C281.137 294.138 287.732 295.876 295.86 296.081L297.508 296.102C314.017 296.102 328.621 293.405 341.32 288.008C354.337 282.61 364.497 275.306 371.799 266.099C373.822 263.57 375.575 260.961 377.061 258.275ZM612.763 146.231C604.736 161.81 596.167 178.115 587.054 195.143C575.307 217.366 562.291 239.75 548.004 262.291L545.307 266.503C531.727 287.505 516.752 307.532 500.381 326.582L497.083 330.366C496.421 331.114 495.749 331.853 495.082 332.596C492.503 327.208 489.471 322.011 485.985 317.007L484.664 315.152C477.007 304.602 467.708 295.284 456.768 287.197C457.35 286.204 457.919 285.204 458.472 284.197C467.391 268.203 471.991 251.166 472.27 233.087L472.283 231.336C472.283 224.514 471.712 217.909 470.58 211.521C489.28 205.953 508.065 199.14 526.932 191.066L531.812 188.951C556.219 178.236 579.509 166.263 601.683 153.037L606.103 150.377C608.346 149.001 610.565 147.615 612.763 146.231ZM270.84 277.529C270.84 270.544 276.712 265.146 288.459 261.337C300.523 257.209 316.715 255.147 337.033 255.147L340.06 255.163C351.803 255.29 363.058 256.161 373.827 257.77C372.545 259.96 371.077 262.104 369.418 264.196C362.116 273.085 352.274 280.229 339.893 285.626L337.549 286.549C325.737 291.013 312.389 293.245 297.508 293.246V290.524C313.082 290.524 326.841 288.032 338.835 283.115C350.872 277.863 360.329 270.969 367.308 262.477C367.987 261.619 368.623 260.748 369.235 259.875C358.953 258.539 348.219 257.869 337.033 257.869C316.858 257.869 301.002 259.922 289.339 263.912L289.32 263.92L289.299 263.925C277.715 267.682 273.561 272.489 273.561 277.529C273.561 280.784 275.222 283.821 279.413 286.639C283.953 289.165 289.929 290.524 297.508 290.524V293.246L296.036 293.227C288.762 293.059 282.745 291.637 277.983 288.959C273.518 285.983 271.145 282.448 270.866 278.355L270.84 277.529ZM466.705 231.336C466.705 226.021 466.338 220.844 465.613 215.802C462.028 216.822 458.449 217.803 454.871 218.731L454.839 218.739C430.228 224.816 407.152 228.007 385.621 228.309C385.835 230.225 385.95 232.186 385.95 234.193C385.95 240.967 384.738 247.392 382.339 253.46C397.869 256.268 412.344 260.597 425.752 266.463L425.75 266.466C435.837 270.825 445.074 275.844 453.457 281.523C462.293 265.845 466.705 249.131 466.705 231.336ZM304.343 106.578C335.493 106.905 363.218 112.297 387.516 122.754C412.914 133.549 432.916 148.313 447.52 167.045C457.495 179.839 464.059 193.892 467.22 209.204C462.394 210.628 457.573 211.974 452.758 213.238L448.017 214.391C424.429 219.972 402.515 222.763 382.275 222.763C382.142 222.763 382.009 222.76 381.876 222.76C379 211.141 371.518 201.458 359.418 193.713C344.04 183.564 324.192 178.33 299.876 178.012L297.508 177.996C279.317 177.996 262.459 180.664 246.932 185.993C227.947 169.395 218.454 148.158 218.454 122.279C218.454 121.527 218.464 120.777 218.484 120.03C244.237 111.053 271.848 106.562 301.316 106.562L304.343 106.578ZM299.785 180.869C323.189 181.167 342.273 186.084 357.037 195.619C368.762 203.037 376.066 212.079 378.953 222.744C328.797 222.376 289.585 213.656 261.315 196.57C257.041 193.91 253.087 191.094 249.452 188.122C264.304 183.277 280.323 180.856 297.508 180.856L299.785 180.869ZM301.316 109.283C272.814 109.283 246.107 113.523 221.176 121.981C221.175 122.08 221.176 122.179 221.176 122.279C221.176 146.787 229.911 166.959 247.557 182.908C262.972 177.812 279.629 175.275 297.508 175.275C323.264 175.275 344.471 180.587 360.917 191.441C372.814 199.063 380.554 208.608 383.957 220.025C404.816 219.865 427.518 216.742 452.075 210.604C456.052 209.56 460.03 208.455 464.015 207.301C460.919 194.019 455.146 181.737 446.686 170.436L445.373 168.716C431.096 150.405 411.493 135.903 386.45 125.26L386.439 125.255C361.755 114.631 333.397 109.283 301.316 109.283ZM297.508 183.577C282.495 183.577 268.42 185.453 255.269 189.193C257.639 190.94 260.133 192.631 262.753 194.261C289.736 210.558 327.136 219.209 375.19 219.977C371.952 211.53 365.483 204.182 355.58 197.917L355.559 197.904C340.888 188.429 321.607 183.577 297.508 183.577ZM391.741 9.92626C417.636 10.3169 443.531 13.6388 469.426 19.8893C497.365 26.2391 524.193 35.1281 549.909 46.5577C575.626 57.9871 598.96 71.3223 619.914 86.5615C625.874 90.831 631.554 95.2075 636.965 99.6764C631.59 109.436 626.061 119.985 620.39 131.328L616.536 138.888C616.19 139.565 615.838 140.241 615.489 140.921C611.485 143.456 607.406 145.976 603.246 148.471L598.829 151.076C576.673 164.023 553.54 175.854 529.431 186.57L524.612 188.627C506.32 196.339 488.106 202.92 469.974 208.38C466.722 192.808 460.035 178.552 449.901 165.615C435.753 146.853 416.39 132.116 391.813 121.399L389.419 120.373C364.506 109.609 336.167 104.057 304.402 103.721L301.316 103.705C272.12 103.705 244.559 108.017 218.635 116.645C219.536 102.898 223.762 90.0115 231.311 77.9883C239.884 64.3367 251.79 52.4304 267.029 42.2711C282.268 32.1118 300.047 24.1743 320.365 18.4596C341.002 12.7449 363.068 9.8891 386.562 9.88905L391.741 9.92626ZM386.562 12.6104C363.293 12.6104 341.477 15.4358 321.101 21.0773L321.104 21.0799C302.273 26.376 285.705 33.5873 271.374 42.6909L268.538 44.5353C254.043 54.1989 242.687 65.4255 234.407 78.1956L233.616 79.4366C227.047 89.8977 223.087 101.008 221.718 112.794C246.782 104.919 273.319 100.984 301.316 100.984C334.641 100.984 364.388 106.592 390.5 117.875C416.563 128.819 437.113 144.159 452.041 163.938C461.805 176.403 468.452 190.075 471.988 204.923C490.674 199.178 509.454 192.235 528.325 184.082L533.117 181.932C557.003 171.11 579.912 159.179 601.846 146.138L606.262 143.464C608.673 141.99 611.052 140.503 613.409 139.016C613.643 138.558 613.879 138.103 614.113 137.647L617.964 130.094C623.265 119.491 628.445 109.573 633.494 100.338C628.658 96.4066 623.604 92.5507 618.33 88.7725L618.314 88.7619C598.827 74.5893 577.248 62.0667 553.569 51.1977L548.804 49.0451C523.252 37.6887 496.592 28.8555 468.823 22.5442L468.788 22.5336C441.37 15.9154 413.962 12.6104 386.562 12.6104ZM640.64 102.762C645.134 106.599 649.429 110.508 653.527 114.489C644.652 121.289 635.274 127.964 625.391 134.511C630.319 123.343 635.4 112.759 640.64 102.762ZM641.469 107.075C638.19 113.444 634.972 120.048 631.815 126.889C637.861 122.726 643.702 118.511 649.344 114.25C646.794 111.833 644.17 109.44 641.469 107.075ZM724.82 15.127C724.82 12.5473 724.307 11.112 723.728 10.3674C723.25 9.75321 722.47 9.27537 720.876 9.27516C717.974 9.27516 714.334 10.5207 709.874 13.4687C705.995 16.033 701.657 19.777 696.86 24.7606L694.777 26.9743C683.518 39.1713 670.926 56.624 657.003 79.4074L656.997 79.4127C653.008 85.9099 649.101 92.721 645.272 99.8438C648.915 102.941 652.425 106.088 655.804 109.281C659.046 106.74 662.223 104.186 665.323 101.611C683.924 86.1631 698.507 70.9356 709.13 55.9387L710.108 54.5382C720.048 40.1187 724.82 27.0005 724.82 15.127ZM469.413 233.058C469.134 250.829 464.534 267.559 455.615 283.245C455.201 283.985 454.774 284.717 454.345 285.448C446.133 279.64 437.038 274.491 427.054 270.011L424.66 268.958C410.495 262.761 395.096 258.292 378.462 255.551C381.483 249.216 383.072 242.464 383.219 235.29L383.229 234.193C383.229 231.23 382.977 228.372 382.485 225.617C403.261 225.598 425.561 222.81 449.386 217.248L454.188 216.095C458.726 214.918 463.268 213.665 467.816 212.34C468.885 218.474 469.426 224.806 469.426 231.336L469.413 233.058ZM475.004 231.336C475.004 250.536 470.281 268.612 460.85 285.523C460.677 285.839 460.498 286.152 460.321 286.466C470.637 294.366 479.492 303.392 486.868 313.554L488.22 315.455C491.001 319.448 493.495 323.563 495.712 327.793C496.583 326.802 497.455 325.809 498.316 324.806L501.556 321.003C517.661 301.918 532.378 281.862 545.705 260.834C559.956 238.349 572.937 216.027 584.649 193.87L584.657 193.857L589.132 185.469C594.926 174.581 600.488 163.997 605.824 153.72C584.206 166.769 561.532 178.626 537.794 189.275L532.907 191.444C513.074 200.151 493.322 207.479 473.657 213.44C474.553 219.237 475.004 225.203 475.004 231.336ZM727.526 16.3495C727.199 29.0272 721.809 42.7485 711.352 57.512C700.557 72.7513 685.793 88.1484 667.061 103.705L663.519 106.615C660.936 108.713 658.304 110.796 655.629 112.871C651.262 108.668 646.665 104.545 641.836 100.503C645.356 93.8771 648.945 87.5129 652.604 81.4112L654.68 77.9883C667.776 56.5584 679.757 39.7329 690.62 27.5111L692.778 25.1273C704.208 12.7457 713.574 6.55385 720.876 6.55385L721.682 6.5884C725.589 6.92281 727.541 9.76896 727.541 15.127L727.526 16.3495Z" fill="black"/>
</svg>
