<svg width="1452" height="930" viewBox="0 0 1452 930" fill="none" xmlns="http://www.w3.org/2000/svg">
<path class="logo-path" d="M1385.64 559.337C1372.58 559.337 1362.74 555.741 1356.12 548.55C1349.68 541.17 1346.47 530.29 1346.47 515.908V420.535L1347.03 417.696V390.447C1347.03 388.743 1347.98 387.608 1349.87 387.04C1351.77 386.662 1353.85 386.378 1356.12 386.189C1358.39 385.81 1360.75 385.526 1363.21 385.337C1365.67 384.959 1367.94 384.77 1370.03 384.77C1371.73 384.77 1372.58 385.716 1372.58 387.608V515.34C1372.58 524.802 1374.76 531.614 1379.11 535.777C1383.46 539.94 1390.56 542.022 1400.4 542.022C1403.43 542.022 1406.55 541.833 1409.77 541.454C1413.17 541.076 1416.77 540.413 1420.55 539.467C1422.25 539.089 1423.2 539.846 1423.39 541.738L1423.67 545.428C1423.86 546.942 1423.2 548.361 1421.69 549.686C1418.66 551.578 1415.06 553.281 1410.9 554.795C1406.74 556.12 1402.48 557.161 1398.13 557.917C1393.77 558.864 1389.61 559.337 1385.64 559.337ZM1328.58 431.605C1327.07 431.605 1326.41 430.658 1326.6 428.766L1327.73 422.805C1328.11 421.102 1329.25 420.156 1331.14 419.967L1347.03 417.696H1405.51L1423.11 416.844C1424.81 416.844 1425.66 417.791 1425.66 419.683C1425.85 421.197 1425.85 422.805 1425.66 424.508C1425.66 426.022 1425.47 427.536 1425.09 429.05C1424.53 430.753 1423.39 431.605 1421.69 431.605H1328.58Z" fill="white"/>
<path class="logo-path" d="M1245.99 559.62C1233.69 559.62 1222.43 556.782 1212.21 551.105C1201.99 545.238 1193.85 536.912 1187.8 526.126C1181.93 515.15 1179 501.999 1179 486.671C1179 471.154 1182.12 458.191 1188.36 447.784C1194.61 437.187 1202.94 429.144 1213.34 423.656C1223.75 418.169 1235.2 415.425 1247.69 415.425C1258.29 415.425 1267.94 417.979 1276.64 423.089C1285.54 428.009 1292.63 435.105 1297.93 444.377C1303.23 453.65 1305.88 464.72 1305.88 477.588C1305.88 478.345 1305.88 479.291 1305.88 480.426C1305.88 481.562 1305.78 482.602 1305.59 483.549C1305.03 485.252 1303.89 486.103 1302.19 486.103H1201.42V473.046H1288.56L1282.03 479.291C1282.03 478.345 1282.03 477.493 1282.03 476.736C1282.03 475.79 1282.03 474.938 1282.03 474.182C1282.03 465.855 1280.43 458.475 1277.21 452.041C1273.99 445.607 1269.55 440.498 1263.87 436.713C1258.38 432.929 1252.04 431.037 1244.85 431.037C1232.36 431.037 1222.62 435.767 1215.61 445.229C1208.8 454.501 1205.4 467.842 1205.4 485.252C1205.4 496.038 1207.48 505.783 1211.64 514.488C1215.8 523.193 1221.48 530.1 1228.67 535.209C1235.86 540.129 1244 542.589 1253.08 542.589C1267.84 542.589 1280.05 538.426 1289.7 530.1C1291.02 528.964 1292.16 529.154 1293.1 530.668L1295.66 534.358C1296.61 535.682 1296.51 537.196 1295.38 538.899C1289.51 545.333 1282.22 550.442 1273.52 554.227C1265 557.822 1255.83 559.62 1245.99 559.62Z" fill="white"/>
<path class="logo-path" d="M1075.51 557.349V467.653H1101.62V557.349H1075.51ZM1158.11 440.12C1158.11 441.823 1157.16 442.674 1155.27 442.674H1139.37C1137.1 442.674 1134.93 442.864 1132.85 443.242C1130.95 443.431 1128.87 443.999 1126.6 444.945C1121.11 447.216 1115.91 450.244 1110.99 454.028C1106.07 457.624 1102 461.692 1098.78 466.234L1097.93 458.002C1099.45 453.082 1101.91 448.162 1105.31 443.242C1108.72 438.322 1112.69 433.78 1117.23 429.617C1121.96 425.265 1126.98 421.859 1132.28 419.399C1137.77 416.749 1143.16 415.425 1148.46 415.425C1154.89 415.425 1158.11 416.371 1158.11 418.263V440.12ZM1058.48 557.349C1056.77 557.349 1055.92 556.403 1055.92 554.511V551.672C1055.92 549.78 1056.87 548.739 1058.76 548.55L1069.83 545.995C1072.48 545.428 1074.09 544.765 1074.66 544.008C1075.22 543.252 1075.51 541.548 1075.51 538.899V506.257H1101.62V539.183C1101.62 541.643 1101.91 543.252 1102.47 544.008C1103.23 544.765 1104.93 545.333 1107.58 545.712L1125.18 548.834C1126.88 549.023 1127.74 550.064 1127.74 551.956V554.795C1127.74 556.498 1126.79 557.349 1124.9 557.349H1058.48ZM1075.51 467.653V426.211L1080.62 434.727L1056.21 430.753C1054.5 430.563 1053.65 429.523 1053.65 427.63V424.224C1053.65 422.71 1054.6 421.669 1056.49 421.102L1092.54 415.709C1095.19 415.33 1097.08 415.519 1098.22 416.276C1099.35 416.844 1099.92 418.358 1099.92 420.818V448.919L1101.62 453.744V467.653H1075.51Z" fill="white"/>
<path class="logo-path" d="M973.198 559.62C960.141 559.62 948.598 556.592 938.569 550.537C928.729 544.482 921.065 536.061 915.577 525.274C910.089 514.488 907.345 501.999 907.345 487.806C907.345 473.425 910.184 460.841 915.861 450.054C921.538 439.268 929.485 430.847 939.704 424.792C949.923 418.547 961.75 415.425 975.185 415.425C983.322 415.425 991.554 416.276 999.88 417.979C1008.21 419.493 1015.59 421.575 1022.02 424.224C1023.53 424.981 1024.2 426.306 1024.01 428.198L1021.45 467.369C1021.26 469.072 1020.22 469.924 1018.33 469.924H1012.37C1010.48 469.924 1009.44 468.978 1009.25 467.085L1001.87 431.32L1014.07 438.984C1008.77 436.903 1003.1 435.294 997.042 434.159C990.986 433.023 984.647 432.456 978.024 432.456C963.642 432.456 952.761 436.903 945.381 445.797C938.19 454.501 934.595 467.558 934.595 484.968C934.595 496.322 936.582 506.351 940.556 515.056C944.719 523.571 950.49 530.289 957.87 535.209C965.25 540.129 973.671 542.589 983.133 542.589C989.756 542.589 996.095 541.548 1002.15 539.467C1008.4 537.385 1014.17 534.263 1019.47 530.1C1020.79 528.775 1022.02 528.964 1023.16 530.668L1025.71 534.641C1026.66 535.777 1026.47 537.196 1025.14 538.899C1019.09 545.522 1011.52 550.632 1002.43 554.227C993.541 557.822 983.795 559.62 973.198 559.62Z" fill="white"/>
<path class="logo-path" d="M823.328 559.62C811.028 559.62 799.769 556.782 789.55 551.105C779.332 545.238 771.195 536.912 765.139 526.126C759.273 515.15 756.34 501.999 756.34 486.671C756.34 471.154 759.462 458.191 765.707 447.784C771.952 437.187 780.278 429.144 790.686 423.656C801.093 418.169 812.542 415.425 825.031 415.425C835.628 415.425 845.279 417.979 853.984 423.089C862.878 428.009 869.974 435.105 875.273 444.377C880.571 453.65 883.22 464.72 883.22 477.588C883.22 478.345 883.22 479.291 883.22 480.426C883.22 481.562 883.126 482.602 882.937 483.549C882.369 485.252 881.233 486.103 879.53 486.103H778.764V473.046H865.906L859.377 479.291C859.377 478.345 859.377 477.493 859.377 476.736C859.377 475.79 859.377 474.938 859.377 474.182C859.377 465.855 857.769 458.475 854.552 452.041C851.335 445.607 846.888 440.498 841.211 436.713C835.723 432.929 829.384 431.037 822.193 431.037C809.703 431.037 799.958 435.767 792.956 445.229C786.144 454.501 782.738 467.842 782.738 485.252C782.738 496.038 784.819 505.783 788.982 514.488C793.146 523.193 798.823 530.1 806.013 535.209C813.204 540.129 821.341 542.589 830.424 542.589C845.185 542.589 857.39 538.426 867.041 530.1C868.366 528.964 869.501 529.154 870.447 530.668L873.002 534.358C873.948 535.682 873.853 537.196 872.718 538.899C866.852 545.333 859.566 550.442 850.862 554.227C842.346 557.822 833.168 559.62 823.328 559.62Z" fill="white"/>
<path class="logo-path" d="M668.256 438.133C684.719 443.242 697.776 448.636 707.427 454.312C717.078 459.8 723.985 466.045 728.148 473.047C732.311 480.048 734.392 488.564 734.392 498.593C734.392 511.272 731.27 522.152 725.025 531.236C718.781 540.319 709.792 547.32 698.06 552.24C686.517 557.161 672.608 559.621 656.334 559.621C646.305 559.621 637.032 558.864 628.517 557.35C620.001 555.836 612.527 554.133 606.093 552.24C599.848 550.159 594.928 548.267 591.332 546.563C589.819 545.807 589.062 544.482 589.062 542.59L587.926 500.864C587.926 499.161 588.872 498.309 590.765 498.309L595.874 498.025C597.577 498.025 598.713 498.877 599.28 500.58L604.957 517.043C606.66 521.774 609.12 525.748 612.337 528.965C615.554 532.182 619.339 534.736 623.691 536.629C628.044 538.521 632.774 539.94 637.884 540.886C643.182 541.643 648.67 542.022 654.347 542.022C670.999 542.022 683.867 538.805 692.95 532.371C702.034 525.937 706.575 516.949 706.575 505.405C706.575 498.404 705.061 492.632 702.034 488.091C699.195 483.36 694.086 479.007 686.706 475.033C679.326 471.06 668.918 466.896 655.482 462.544C638.83 456.867 625.584 451.285 615.743 445.797C606.093 440.12 599.091 433.781 594.739 426.779C590.576 419.778 588.494 411.546 588.494 402.084C588.494 390.163 591.522 379.944 597.577 371.429C603.822 362.724 612.621 356.101 623.975 351.559C635.329 346.828 648.67 344.463 663.998 344.463C672.703 344.463 680.745 345.22 688.125 346.734C695.505 348.248 702.034 350.14 707.711 352.411C713.577 354.492 718.118 356.668 721.335 358.939C722.66 360.075 723.322 361.494 723.322 363.197L724.458 402.652C724.458 404.355 723.512 405.301 721.619 405.49L715.091 405.774C713.388 405.964 712.252 405.112 711.684 403.22L705.156 383.35C703.453 377.862 700.709 373.605 696.924 370.577C693.14 367.549 688.503 365.373 683.016 364.048C677.528 362.724 671.283 362.062 664.282 362.062C648.954 362.062 637.221 365.089 629.084 371.145C620.947 377.2 616.879 385.81 616.879 396.975C616.879 403.409 618.393 408.991 621.42 413.722C624.637 418.264 629.936 422.427 637.316 426.211C644.885 429.996 655.199 433.97 668.256 438.133Z" fill="white"/>
<path class="logo-path" d="M1309.53 479.488H1304.01L1310.22 472.589C1342.88 436.714 1369.09 407.278 1388.87 384.281C1409.11 361.284 1422.45 345.186 1428.89 335.987H1451.65C1437.4 346.565 1419.69 362.433 1398.53 383.591C1377.83 404.748 1350.47 434.184 1316.43 471.899L1309.53 479.488ZM1440.61 485.008C1421.3 507.085 1401.06 523.873 1379.9 535.371C1359.21 546.87 1338.74 552.619 1318.5 552.619C1303.32 552.619 1290.67 553.999 1280.56 556.758C1269.98 559.518 1264.69 562.968 1264.69 567.107C1264.69 569.407 1266.76 570.557 1270.9 570.557C1285.15 570.557 1298.95 566.647 1312.29 558.828C1326.09 551.009 1338.51 540.66 1349.55 527.782C1360.58 514.904 1369.32 500.416 1375.76 484.318C1382.2 467.76 1385.42 450.972 1385.42 433.954C1385.42 423.836 1386.11 414.867 1387.49 407.048C1389.33 399.229 1392.78 391.18 1397.84 382.901C1402.9 374.162 1410.95 364.043 1421.99 352.545L1450.96 335.987C1438.54 345.646 1428.66 353.695 1421.3 360.134C1414.4 366.113 1409.57 371.632 1406.81 376.692C1404.05 381.291 1402.67 386.35 1402.67 391.87C1402.67 397.849 1403.59 406.128 1405.43 416.706C1407.73 426.825 1408.88 437.174 1408.88 447.752C1408.88 463.39 1404.97 478.798 1397.15 493.976C1389.33 508.695 1378.75 522.263 1365.41 534.681C1352.08 546.64 1337.36 556.298 1321.26 563.658C1305.16 570.557 1288.83 574.006 1272.28 574.006C1264.92 574.006 1261.24 571.706 1261.24 567.107C1261.24 562.048 1266.76 557.908 1277.8 554.689C1288.83 551.009 1302.17 549.169 1317.81 549.169C1356.91 549.169 1395.54 528.242 1433.72 486.387L1439.92 479.488H1445.44L1440.61 485.008Z" fill="white"/>
<path class="logo-path" d="M754.887 930C730.05 930 710.962 925.4 697.624 916.202C684.286 907.003 677.617 893.665 677.617 876.187C677.617 865.148 681.296 855.719 688.655 847.9C695.554 840.082 704.523 834.792 715.562 832.032V835.482C705.443 837.782 697.394 842.611 691.415 849.97C684.976 857.329 681.756 866.068 681.756 876.187C681.756 891.825 687.735 904.013 699.694 912.752C711.652 921.491 727.98 925.86 748.678 925.86C775.354 925.86 802.721 918.271 830.777 903.093C858.373 888.375 886.89 867.678 916.326 841.001C945.762 814.325 976.118 782.819 1007.39 746.484C1038.21 710.608 1069.72 671.513 1101.91 629.199C1134.57 586.884 1167.91 542.73 1201.95 496.736L1203.33 504.325H1189.53L1247.48 444.992L1277.84 408.427H1316.47C1304.52 417.166 1291.64 427.285 1277.84 438.783C1264.04 450.282 1250.47 462.24 1237.13 474.659C1224.26 486.617 1212.53 498.576 1201.95 510.534C1170.67 557.448 1140.32 601.832 1110.88 643.687C1081.9 686.001 1053.16 724.636 1024.64 759.592C996.126 794.547 967.609 824.673 939.093 849.97C910.117 875.727 880.451 895.504 850.094 909.302C819.738 923.101 788.002 930 754.887 930ZM1088.11 574.006C1076.62 574.006 1070.87 567.567 1070.87 554.688C1070.87 543.19 1074.32 532.381 1081.21 522.262C1088.11 512.144 1096.62 502.485 1106.74 493.286C1117.32 483.627 1127.67 474.429 1137.79 465.69C1148.37 456.951 1157.1 448.672 1164 440.853C1170.9 432.574 1174.35 424.525 1174.35 416.706C1174.35 411.647 1171.59 409.117 1166.07 409.117C1160.55 409.117 1152.74 412.107 1142.62 418.086C1132.96 423.605 1122.15 431.194 1110.19 440.853C1098.69 450.512 1087.65 461.09 1077.08 472.589L1070.87 479.488H1065.35L1071.56 472.589C1089.95 452.351 1107.66 436.254 1124.68 424.295C1142.16 411.877 1156.19 405.667 1166.76 405.667C1170.9 405.667 1175.27 407.507 1179.87 411.187C1184.93 414.866 1187.46 421.075 1187.46 429.814C1187.46 439.933 1183.78 450.052 1176.42 460.17C1169.06 469.829 1159.86 479.258 1148.83 488.457C1138.25 497.656 1127.44 506.395 1116.4 514.673C1105.36 522.952 1096.16 531.001 1088.8 538.82C1081.44 546.639 1077.77 553.998 1077.77 560.897C1077.77 564.117 1078.91 566.647 1081.21 568.486C1083.51 569.866 1086.04 570.556 1088.8 570.556C1095.24 570.556 1103.98 567.567 1115.02 561.587C1126.52 555.148 1138.94 546.869 1152.28 536.751C1165.61 526.632 1178.03 515.823 1189.53 504.325H1194.36C1182.4 516.743 1169.52 528.242 1155.73 538.82C1141.93 549.399 1129.05 557.908 1117.09 564.347C1105.13 570.786 1095.47 574.006 1088.11 574.006Z" fill="white"/>
<path class="logo-path" d="M854.175 572.625C842.676 572.625 836.927 563.656 836.927 545.719C836.927 533.76 840.606 521.112 847.965 507.774C854.864 494.435 864.293 481.557 876.252 469.139C888.21 456.26 901.548 444.762 916.267 434.643C930.985 424.064 946.163 415.785 961.801 409.806C977.899 403.827 993.077 400.837 1007.33 400.837C1019.29 400.837 1025.27 405.437 1025.27 414.636C1025.27 423.374 1019.75 434.413 1008.71 447.751C997.676 460.63 983.878 475.808 967.32 493.285C954.442 506.624 940.643 519.502 925.925 531.92C911.667 543.879 898.099 553.768 885.221 561.587C872.802 568.946 862.453 572.625 854.175 572.625ZM854.864 569.176C861.764 569.176 870.962 565.956 882.461 559.517C893.959 552.618 906.838 543.189 921.096 531.231C935.354 519.272 949.842 505.704 964.56 490.526C981.118 473.048 994.456 458.1 1004.58 445.682C1015.15 433.263 1020.44 423.145 1020.44 415.326C1020.44 409.346 1016.53 406.357 1008.71 406.357C1001.82 406.357 992.847 409.116 981.808 414.636C971.229 420.155 959.731 427.744 947.313 437.403C934.894 446.601 922.706 456.95 910.747 468.449C898.789 479.947 887.75 491.446 877.631 502.944C867.973 514.443 860.154 525.251 854.175 535.37C848.195 545.489 845.206 553.998 845.206 560.897C845.206 566.416 848.425 569.176 854.864 569.176ZM1070.81 479.487L1065.98 485.007C1051.26 501.564 1036.31 516.742 1021.13 530.541C1006.41 543.879 992.617 554.458 979.738 562.277C967.32 570.096 957.431 574.005 950.072 574.005C945.933 574.005 942.253 572.395 939.034 569.176C936.274 566.416 934.894 562.736 934.894 558.137C934.894 546.179 941.333 530.081 954.212 509.843C967.55 489.606 985.948 467.529 1009.4 443.612H1012.16L1043.9 408.426H1084.6C1078.63 412.106 1072.19 416.705 1065.29 422.225C1058.39 427.284 1051.95 432.803 1045.97 438.783C1019.75 464.999 999.056 485.926 983.878 501.564C968.7 517.202 957.891 529.391 951.452 538.13C945.473 546.869 942.483 554.228 942.483 560.207C942.483 567.106 945.243 570.556 950.762 570.556C957.201 570.556 965.94 567.106 976.979 560.207C988.477 552.848 1001.36 542.729 1015.61 529.851C1029.87 516.972 1044.36 502.484 1059.08 486.386L1065.29 479.487H1070.81Z" fill="white"/>
<path class="logo-path" d="M936.899 108.316C956.217 75.2003 975.074 48.9837 993.472 29.6662C1012.33 9.88872 1027.51 0 1039.01 0C1049.12 0 1054.18 5.28932 1054.18 15.868C1054.18 35.1855 1046.37 56.3427 1030.73 79.3398C1015.09 101.877 993.702 124.644 966.565 147.641C939.429 170.178 908.613 192.025 874.117 213.183C840.082 233.88 804.206 252.507 766.491 269.065C728.776 285.623 691.291 298.731 654.036 308.39C616.78 317.589 582.055 322.188 549.859 322.188C500.185 322.188 457.181 316.209 420.846 304.251C384.97 292.292 357.144 275.274 337.366 253.197C318.049 230.66 308.39 203.984 308.39 173.168C308.39 150.171 314.829 128.553 327.708 108.316C340.586 88.0786 358.294 70.3709 380.831 55.1929C403.828 39.5549 430.275 27.3665 460.171 18.6276C490.067 9.88874 522.033 5.51929 556.068 5.51929C596.083 5.51929 636.328 10.3487 676.803 20.0074C717.737 29.2062 756.832 42.3146 794.088 59.3324C831.803 76.3502 866.068 96.1276 896.884 118.665C928.16 140.742 954.147 164.659 974.844 190.415C995.542 216.172 1009.34 242.619 1016.24 269.755L1013.48 270.445C1006.12 243.769 992.092 217.782 971.395 192.485C950.697 166.728 924.941 142.812 894.125 120.734C863.769 98.6573 829.963 79.3398 792.708 62.7819C755.453 46.224 716.588 33.3457 676.113 24.1469C636.098 14.4881 596.083 9.65876 556.068 9.65876C522.033 9.65876 490.067 13.7982 460.171 22.0771C430.734 30.3561 404.978 41.8546 382.901 56.5727C360.823 71.2908 343.576 88.5386 331.157 108.316C318.739 128.093 312.53 149.481 312.53 172.478C312.53 218.472 333.227 254.347 374.622 280.104C416.476 305.401 474.889 318.049 549.859 318.049C581.135 318.049 615.171 313.45 651.966 304.251C688.761 294.592 725.786 281.714 763.042 265.616C800.297 249.058 835.942 230.66 869.978 210.423C904.473 189.726 935.289 168.108 962.426 145.571C989.562 123.034 1010.95 100.727 1026.59 78.6499C1042.23 56.5727 1050.04 36.1053 1050.04 17.2478C1050.04 8.96885 1046.83 4.8294 1040.39 4.8294C1029.81 4.8294 1016.24 13.7982 999.681 31.7359C983.123 49.6736 964.726 75.2003 944.488 108.316C928.39 134.533 913.212 164.199 898.954 197.315C885.156 229.97 870.898 264.006 856.18 299.421C841.461 334.837 825.364 370.022 807.886 404.978C790.868 439.933 771.32 473.049 749.243 504.325C727.166 535.141 701.41 562.507 671.973 586.424C642.997 610.801 609.191 629.889 570.556 643.687C532.381 657.485 488.227 664.384 438.093 664.384C393.019 664.384 350.935 657.715 311.84 644.377C272.745 631.039 238.479 612.411 209.043 588.494C179.607 564.577 156.61 536.751 140.052 505.015C123.494 473.279 115.215 439.243 115.215 402.908C115.215 367.493 123.264 334.377 139.362 303.561C155.92 272.285 178.687 244.918 207.663 221.461C237.099 197.545 270.905 178.917 309.08 165.579C347.715 152.24 388.88 145.571 432.574 145.571C480.408 145.571 522.953 153.62 560.208 169.718C597.463 185.356 626.669 207.203 647.826 235.26C669.444 262.856 680.252 294.592 680.252 330.467C680.252 357.604 673.583 383.131 660.245 407.048C647.366 430.505 629.199 451.202 605.742 469.14C582.285 487.077 554.918 501.105 523.642 511.224C492.826 521.343 459.481 526.402 423.605 526.402C387.73 526.402 356.454 521.113 329.777 510.534C303.101 499.496 282.404 484.088 267.685 464.31C252.967 444.533 245.608 421.536 245.608 395.319C245.608 368.642 253.657 344.726 269.755 323.568C285.853 301.951 307.47 284.933 334.607 272.515C362.203 259.637 393.019 253.197 427.055 253.197C463.85 253.197 493.746 260.786 516.743 275.964C539.74 290.683 551.239 310.23 551.239 334.607C551.239 351.625 545.72 367.033 534.681 380.831C524.102 394.169 509.384 404.748 490.527 412.567C472.129 420.386 450.972 424.295 427.055 424.295C414.177 424.295 403.828 421.766 396.009 416.706C388.19 411.647 384.28 405.208 384.28 397.389C384.28 386.35 393.249 377.611 411.187 371.172C429.585 364.273 453.731 360.823 483.628 360.823C531.921 360.823 574.466 368.872 611.261 384.97C648.516 401.068 677.493 423.375 698.19 451.892C718.887 480.408 729.236 513.294 729.236 550.549C729.236 579.065 720.957 605.512 704.399 629.889C688.301 654.726 665.764 676.343 636.788 694.74C608.272 713.598 574.926 728.316 536.751 738.895C498.576 749.473 457.411 754.763 413.257 754.763C353.004 754.763 297.582 746.484 246.988 729.926C196.855 713.828 153.16 690.831 115.905 660.935C79.1098 631.039 50.5935 595.623 30.3561 554.689C10.1187 513.754 0 468.91 0 420.156C0 374.162 9.65875 330.237 28.9763 288.383C48.2938 246.528 75.4303 208.813 110.386 175.237C145.801 141.662 187.656 114.295 235.95 93.138L238.019 96.5875C190.645 117.285 149.481 144.421 114.525 177.997C79.5697 211.573 52.6632 249.288 33.8056 291.142C14.4881 332.537 4.82937 376.002 4.82937 421.536C4.82937 469.829 14.9481 513.984 35.1855 553.999C54.9629 594.013 83.0193 628.739 119.355 658.175C155.69 687.611 198.694 710.378 248.368 726.476C298.501 742.574 353.464 750.623 413.257 750.623C456.951 750.623 497.656 745.334 535.371 734.755C573.086 724.637 605.972 710.378 634.028 691.981C662.545 674.043 684.852 652.886 700.95 628.509C717.047 604.592 725.096 578.605 725.096 550.549C725.096 514.214 714.748 482.248 694.051 454.651C673.813 426.595 645.527 404.748 609.191 389.11C572.856 373.012 531.231 364.963 484.318 364.963C454.881 364.963 431.424 367.953 413.947 373.932C396.929 379.451 388.42 387.27 388.42 397.389C388.42 403.828 391.869 409.347 398.769 413.947C406.128 418.086 415.556 420.156 427.055 420.156C450.052 420.156 470.519 416.476 488.457 409.117C506.395 401.298 520.653 390.95 531.231 378.071C541.81 364.733 547.099 350.015 547.099 333.917C547.099 311.38 535.831 292.982 513.294 278.724C491.217 264.466 462.47 257.337 427.055 257.337C393.939 257.337 363.813 263.546 336.677 275.964C310 287.923 288.843 304.251 273.205 324.948C257.567 345.645 249.748 369.102 249.748 395.319C249.748 420.616 256.877 442.923 271.135 462.24C285.853 481.098 306.091 495.816 331.847 506.395C358.064 516.973 388.65 522.263 423.605 522.263C458.561 522.263 491.217 517.433 521.573 507.775C552.389 497.656 579.295 483.858 602.292 466.38C625.289 448.902 643.227 428.665 656.105 405.668C669.444 382.211 676.113 357.144 676.113 330.467C676.113 295.512 665.534 264.466 644.377 237.329C623.22 210.193 594.243 188.806 557.448 173.168C521.113 157.53 479.488 149.711 432.574 149.711C389.34 149.711 348.865 156.38 311.15 169.718C273.435 182.596 240.089 200.764 211.113 224.221C182.596 247.218 160.059 274.125 143.501 304.941C127.404 335.297 119.355 367.953 119.355 402.908C119.355 433.264 126.714 461.551 141.432 487.767C156.61 513.984 177.307 537.211 203.524 557.448C230.2 577.226 260.786 592.634 295.282 603.672C330.237 615.171 367.723 620.92 407.737 620.92C453.731 620.92 495.586 614.251 533.301 600.913C571.016 587.574 605.282 569.637 636.098 547.099C667.374 524.102 695.66 497.886 720.957 468.45C746.254 439.013 769.251 407.967 789.948 375.312C810.645 342.656 829.503 310.23 846.521 278.034C863.999 245.378 880.096 214.562 894.815 185.586C909.533 156.15 923.561 130.393 936.899 108.316Z" fill="white"/>
</svg>
