{
    "asset" : {
        "generator" : "Khronos glTF Blender I/O v1.6.16",
        "version" : "2.0"
    },
    "scene" : 0,
    "scenes" : [
        {
            "name" : "Scene",
            "nodes" : [
                0,
                1,
                2
            ]
        }
    ],
    "nodes" : [
        {
            "mesh" : 0,
            "name" : "m_1911_bolt_02",
            "rotation" : [
                0.9238796234130859,
                0,
                0,
                0.38268333673477173
            ],
            "scale" : [
                2.3211352825164795,
                2.3211355209350586,
                2.3211355209350586
            ],
            "translation" : [
                -0.0003160413180012256,
                0.22731730341911316,
                -0.1164795458316803
            ]
        },
        {
            "mesh" : 1,
            "name" : "m_1911_bolt_01",
            "rotation" : [
                0.7071068286895752,
                0,
                0,
                0.7071067094802856
            ],
            "scale" : [
                2.3211352825164795,
                2.3211352825164795,
                2.3211352825164795
            ],
            "translation" : [
                -0.0003160496708005667,
                0.27965113520622253,
                0.07462279498577118
            ]
        },
        {
            "mesh" : 2,
            "name" : "m_1911_base",
            "rotation" : [
                0.7071068286895752,
                0,
                0,
                0.7071067094802856
            ],
            "scale" : [
                2.3211352825164795,
                2.3211352825164795,
                2.3211352825164795
            ],
            "translation" : [
                -0.0003160496708005667,
                0.27965086698532104,
                0.07462279498577118
            ]
        }
    ],
    "animations" : [
        {
            "channels" : [
                {
                    "sampler" : 0,
                    "target" : {
                        "node" : 0,
                        "path" : "translation"
                    }
                },
                {
                    "sampler" : 1,
                    "target" : {
                        "node" : 0,
                        "path" : "rotation"
                    }
                },
                {
                    "sampler" : 2,
                    "target" : {
                        "node" : 0,
                        "path" : "scale"
                    }
                }
            ],
            "name" : "m_1911_bolt_02|Take 001|BaseLayer",
            "samplers" : [
                {
                    "input" : 12,
                    "interpolation" : "STEP",
                    "output" : 13
                },
                {
                    "input" : 12,
                    "interpolation" : "STEP",
                    "output" : 14
                },
                {
                    "input" : 12,
                    "interpolation" : "STEP",
                    "output" : 15
                }
            ]
        },
        {
            "channels" : [
                {
                    "sampler" : 0,
                    "target" : {
                        "node" : 1,
                        "path" : "translation"
                    }
                },
                {
                    "sampler" : 1,
                    "target" : {
                        "node" : 1,
                        "path" : "rotation"
                    }
                },
                {
                    "sampler" : 2,
                    "target" : {
                        "node" : 1,
                        "path" : "scale"
                    }
                }
            ],
            "name" : "m_1911_bolt_01|Take 001|BaseLayer",
            "samplers" : [
                {
                    "input" : 12,
                    "interpolation" : "STEP",
                    "output" : 16
                },
                {
                    "input" : 12,
                    "interpolation" : "STEP",
                    "output" : 17
                },
                {
                    "input" : 12,
                    "interpolation" : "STEP",
                    "output" : 18
                }
            ]
        },
        {
            "channels" : [
                {
                    "sampler" : 0,
                    "target" : {
                        "node" : 2,
                        "path" : "translation"
                    }
                },
                {
                    "sampler" : 1,
                    "target" : {
                        "node" : 2,
                        "path" : "rotation"
                    }
                },
                {
                    "sampler" : 2,
                    "target" : {
                        "node" : 2,
                        "path" : "scale"
                    }
                }
            ],
            "name" : "m_1911_base|Take 001|BaseLayer",
            "samplers" : [
                {
                    "input" : 12,
                    "interpolation" : "STEP",
                    "output" : 19
                },
                {
                    "input" : 12,
                    "interpolation" : "STEP",
                    "output" : 20
                },
                {
                    "input" : 12,
                    "interpolation" : "STEP",
                    "output" : 21
                }
            ]
        }
    ],
    "materials" : [
        {
            "doubleSided" : true,
            "name" : "M1911",
            "normalTexture" : {
                "index" : 0
            },
            "pbrMetallicRoughness" : {
                "baseColorTexture" : {
                    "index" : 1
                },
                "metallicRoughnessTexture" : {
                    "index" : 2
                }
            }
        }
    ],
    "meshes" : [
        {
            "name" : "\u30e1\u30c3\u30b7\u30e5",
            "primitives" : [
                {
                    "attributes" : {
                        "POSITION" : 0,
                        "NORMAL" : 1,
                        "TEXCOORD_0" : 2
                    },
                    "indices" : 3,
                    "material" : 0
                }
            ]
        },
        {
            "name" : "\u30e1\u30c3\u30b7\u30e5.002",
            "primitives" : [
                {
                    "attributes" : {
                        "POSITION" : 4,
                        "NORMAL" : 5,
                        "TEXCOORD_0" : 6
                    },
                    "indices" : 7,
                    "material" : 0
                }
            ]
        },
        {
            "name" : "\u30e1\u30c3\u30b7\u30e5.003",
            "primitives" : [
                {
                    "attributes" : {
                        "POSITION" : 8,
                        "NORMAL" : 9,
                        "TEXCOORD_0" : 10
                    },
                    "indices" : 11,
                    "material" : 0
                }
            ]
        }
    ],
    "textures" : [
        {
            "sampler" : 0,
            "source" : 0
        },
        {
            "sampler" : 0,
            "source" : 1
        },
        {
            "sampler" : 0,
            "source" : 2
        }
    ],
    "images" : [
        {
            "mimeType" : "image/png",
            "name" : "M1911_Normal",
            "uri" : "M1911_Normal.png"
        },
        {
            "mimeType" : "image/png",
            "name" : "M1911_Albedo",
            "uri" : "M1911_Albedo.png"
        },
        {
            "mimeType" : "image/png",
            "name" : "M1911_Roughness",
            "uri" : "M1911_Roughness.png"
        }
    ],
    "accessors" : [
        {
            "bufferView" : 0,
            "componentType" : 5126,
            "count" : 1164,
            "max" : [
                0.0038471396546810865,
                0.007483964320272207,
                0.007483964320272207
            ],
            "min" : [
                -0.003847121261060238,
                -0.017866147682070732,
                -0.027453240007162094
            ],
            "type" : "VEC3"
        },
        {
            "bufferView" : 1,
            "componentType" : 5126,
            "count" : 1164,
            "type" : "VEC3"
        },
        {
            "bufferView" : 2,
            "componentType" : 5126,
            "count" : 1164,
            "type" : "VEC2"
        },
        {
            "bufferView" : 3,
            "componentType" : 5123,
            "count" : 1164,
            "type" : "SCALAR"
        },
        {
            "bufferView" : 4,
            "componentType" : 5126,
            "count" : 4635,
            "max" : [
                0.010448580607771873,
                0.10730915516614914,
                0.02552061527967453
            ],
            "min" : [
                -0.010424567386507988,
                -0.0845012441277504,
                -0.013549973256886005
            ],
            "type" : "VEC3"
        },
        {
            "bufferView" : 5,
            "componentType" : 5126,
            "count" : 4635,
            "type" : "VEC3"
        },
        {
            "bufferView" : 6,
            "componentType" : 5126,
            "count" : 4635,
            "type" : "VEC2"
        },
        {
            "bufferView" : 7,
            "componentType" : 5123,
            "count" : 4707,
            "type" : "SCALAR"
        },
        {
            "bufferView" : 8,
            "componentType" : 5126,
            "count" : 10107,
            "max" : [
                0.015157483518123627,
                0.10742637515068054,
                0.11909129470586777
            ],
            "min" : [
                -0.01380966603755951,
                -0.10802450776100159,
                -0.008474784903228283
            ],
            "type" : "VEC3"
        },
        {
            "bufferView" : 9,
            "componentType" : 5126,
            "count" : 10107,
            "type" : "VEC3"
        },
        {
            "bufferView" : 10,
            "componentType" : 5126,
            "count" : 10107,
            "type" : "VEC2"
        },
        {
            "bufferView" : 11,
            "componentType" : 5123,
            "count" : 10173,
            "type" : "SCALAR"
        },
        {
            "bufferView" : 12,
            "componentType" : 5126,
            "count" : 1,
            "max" : [
                0.033333336313565574
            ],
            "min" : [
                0.033333336313565574
            ],
            "type" : "SCALAR"
        },
        {
            "bufferView" : 13,
            "componentType" : 5126,
            "count" : 1,
            "type" : "VEC3"
        },
        {
            "bufferView" : 14,
            "componentType" : 5126,
            "count" : 1,
            "type" : "VEC4"
        },
        {
            "bufferView" : 15,
            "componentType" : 5126,
            "count" : 1,
            "type" : "VEC3"
        },
        {
            "bufferView" : 16,
            "componentType" : 5126,
            "count" : 1,
            "type" : "VEC3"
        },
        {
            "bufferView" : 17,
            "componentType" : 5126,
            "count" : 1,
            "type" : "VEC4"
        },
        {
            "bufferView" : 18,
            "componentType" : 5126,
            "count" : 1,
            "type" : "VEC3"
        },
        {
            "bufferView" : 19,
            "componentType" : 5126,
            "count" : 1,
            "type" : "VEC3"
        },
        {
            "bufferView" : 20,
            "componentType" : 5126,
            "count" : 1,
            "type" : "VEC4"
        },
        {
            "bufferView" : 21,
            "componentType" : 5126,
            "count" : 1,
            "type" : "VEC3"
        }
    ],
    "bufferViews" : [
        {
            "buffer" : 0,
            "byteLength" : 13968,
            "byteOffset" : 0
        },
        {
            "buffer" : 0,
            "byteLength" : 13968,
            "byteOffset" : 13968
        },
        {
            "buffer" : 0,
            "byteLength" : 9312,
            "byteOffset" : 27936
        },
        {
            "buffer" : 0,
            "byteLength" : 2328,
            "byteOffset" : 37248
        },
        {
            "buffer" : 0,
            "byteLength" : 55620,
            "byteOffset" : 39576
        },
        {
            "buffer" : 0,
            "byteLength" : 55620,
            "byteOffset" : 95196
        },
        {
            "buffer" : 0,
            "byteLength" : 37080,
            "byteOffset" : 150816
        },
        {
            "buffer" : 0,
            "byteLength" : 9414,
            "byteOffset" : 187896
        },
        {
            "buffer" : 0,
            "byteLength" : 121284,
            "byteOffset" : 197312
        },
        {
            "buffer" : 0,
            "byteLength" : 121284,
            "byteOffset" : 318596
        },
        {
            "buffer" : 0,
            "byteLength" : 80856,
            "byteOffset" : 439880
        },
        {
            "buffer" : 0,
            "byteLength" : 20346,
            "byteOffset" : 520736
        },
        {
            "buffer" : 0,
            "byteLength" : 4,
            "byteOffset" : 541084
        },
        {
            "buffer" : 0,
            "byteLength" : 12,
            "byteOffset" : 541088
        },
        {
            "buffer" : 0,
            "byteLength" : 16,
            "byteOffset" : 541100
        },
        {
            "buffer" : 0,
            "byteLength" : 12,
            "byteOffset" : 541116
        },
        {
            "buffer" : 0,
            "byteLength" : 12,
            "byteOffset" : 541128
        },
        {
            "buffer" : 0,
            "byteLength" : 16,
            "byteOffset" : 541140
        },
        {
            "buffer" : 0,
            "byteLength" : 12,
            "byteOffset" : 541156
        },
        {
            "buffer" : 0,
            "byteLength" : 12,
            "byteOffset" : 541168
        },
        {
            "buffer" : 0,
            "byteLength" : 16,
            "byteOffset" : 541180
        },
        {
            "buffer" : 0,
            "byteLength" : 12,
            "byteOffset" : 541196
        }
    ],
    "samplers" : [
        {
            "magFilter" : 9729,
            "minFilter" : 9987
        }
    ],
    "buffers" : [
        {
            "byteLength" : 541208,
            "uri" : "untitled.bin"
        }
    ]
}
